<svg xmlns="http://www.w3.org/2000/svg" viewBox="0 0 67 183.39"><g id="Layer_2" data-name="Layer 2"><g id="Layer_1-2" data-name="Layer 1"><path fill="#329cc0" d="M58,104.93l.73-4.87c-2.58.58-2.88,2.11-3,4.4-1.22,19.93-2.51,39.86-4.12,59.77-.47,5.81-.74,11.08,5,14.55.47.28.71.93,1.15,1.54-2.34,2.59-4.77,4-8.15,2.38-1.44-.69-2.92-1.32-4.41-1.91-4-1.6-5.5-4.54-5.9-8.86-1.88-20-4.08-40-6.18-60a26.62,26.62,0,0,0-.63-2.75c-2.18,21.8-4.34,42.87-6.35,63.95-.33,3.44-1.63,5.84-4.87,7.13-1.95.77-3.89,1.55-5.8,2.42-3.37,1.53-5.85.25-8.21-2.43A9.8,9.8,0,0,1,9,178.34c4.86-3,5.55-7.26,5.1-12.69-1.74-20.76-3-41.55-4.51-62.33-.09-1.25-1.15-2.42-1.76-3.63l-1,.32c.2,1.6.39,3.19.59,4.88-1.84,1.75-3.56,1.65-4.52-.8-1.14-3-2.56-6-2.73-9.09-1-18.68,2-36.87,7.57-54.65A12.51,12.51,0,0,1,17,31.57a73.64,73.64,0,0,0,7.33-2.51c2.06-.78,2.62-1.8,1.57-4.23a58,58,0,0,1-4-12.86c-.86-4.9,2.91-7.92,6.3-10.43s8.66-1.8,11.8.78a7.21,7.21,0,0,1,3.11,5.55,29.24,29.24,0,0,1-3.49,17.35c-1.13,2.05-.4,3,1.31,3.7a63.5,63.5,0,0,0,7.33,2.54,13,13,0,0,1,9.54,8.95c5.91,17.85,8.82,36.16,7.51,55-.2,3-1.63,5.88-2.71,8.72C61.71,106.33,60.11,106.66,58,104.93ZM52,66.17l-1,.15,5,30.15C58,85.89,53.27,76.29,52,66.17ZM9.31,95.89Q11.77,81,14.22,66.08C12.1,75.92,7.78,85.42,9.31,95.89Z"/></g></g></svg>