<svg xmlns="http://www.w3.org/2000/svg" viewBox="0 0 62 182.91"><g id="Layer_2" data-name="Layer 2"><g id="Layer_1-2" data-name="Layer 1"><path fill="#329cc0" d="M55.83,99.56c-3,.51-3,2.59-3.15,5q-1.8,31.75-4,63.51c-.23,3.28.54,5.77,3,7.82,1.31,1.08,2.5,2.31,3.92,3.63-2.22,2.73-4.39,4.33-7.74,2.72a17.67,17.67,0,0,0-2.06-.82c-5.32-1.7-7.87-4.74-8.33-10.91-1.69-22.87-4.15-45.67-6.43-69.55-1.15,12.52-2.21,24-3.26,35.49-1.12,12.28-2.28,24.55-3.29,36.84-.25,3-1.49,5.13-4.23,6.37-1.8.8-3.61,1.58-5.38,2.44-3.36,1.63-5.85.43-8.16-2.35a10.26,10.26,0,0,1,1.75-2c5.08-3.17,5.27-7.85,4.88-13.23C12,144.77,10.85,125,9.68,105.13c-.14-2.52,0-5-3.35-5.81a14.76,14.76,0,0,1,.49,3.39c-.07.89-.55,2.27-1.16,2.47a2.79,2.79,0,0,1-2.55-1C1.94,101.48.47,98.7.28,95.88-1,76.72,2.31,58,6.75,39.52c1-4.21,3.95-7,8.22-8.26,2.48-.73,4.94-1.57,7.38-2.4,2.95-1,3.61-2.47,2.1-5.59a50.19,50.19,0,0,1-3.57-11.46C19.86,7,23.09,3.7,26.55,1.49c3.77-2.4,8.07-1.74,11.85.87.89.61,1.7,1.35,2.73,2.17A13.78,13.78,0,0,0,41,7.75,23.6,23.6,0,0,1,37.79,24c-1.45,2.39-.61,3.71,1.65,4.54,2.54.93,5.1,1.84,7.7,2.58a11.68,11.68,0,0,1,8.68,8.78c4.36,17.53,7.17,35.3,6.6,53.42-.1,3.44-1.58,6.89-2.77,10.21-.3.83-1.95,1.17-3,1.74a18.77,18.77,0,0,1-1-3A13.16,13.16,0,0,1,55.83,99.56Zm-2.77-3.18c2.65-11-2.45-21.06-3.65-31.63l-1,.14Q50.72,80.64,53.06,96.38ZM14,64.28l-.83.07C11.68,71.19,10.18,78,8.85,84.9c-.76,3.91-1.61,7.89.21,11.14Z"/></g></g></svg>