<svg xmlns="http://www.w3.org/2000/svg" viewBox="0 0 70 183.43"><g id="Layer_2" data-name="Layer 2"><g id="Layer_1-2" data-name="Layer 1"><path fill="#329cc0" d="M9.77,101.16,7,100.44c.19,1.52.38,3,.57,4.44-2.12,2-3.86,1.43-4.81-1C1.62,101,.33,98.06.17,95.1-.92,75.94,3.47,57.62,9.38,39.61a11.85,11.85,0,0,1,8.69-7.87c2.61-.71,5.16-1.65,7.72-2.56,2.25-.79,2.93-1.84,1.73-4.44C25.8,21,24.89,16.92,23.6,13c-1.52-4.61,2.77-9,6.33-11.46s9.19-1.77,12.47,1L45.24,5a15.19,15.19,0,0,0-.18,3.72c1.16,5.75-.44,11-3.09,15.91-1.44,2.66-.75,3.83,1.74,4.67,2.33.79,4.64,1.69,7,2.3a12.66,12.66,0,0,1,9.4,8.62c5.89,17.52,10.13,35.36,9,54-.2,3.32-1.61,6.63-2.77,9.83-.88,2.41-2.64,2.64-4.71.85.25-1.53.5-3.08.76-4.63l-1.15-.44c-.61,1.5-1.72,3-1.77,4.49-.62,20.37-1.74,40.69-5.41,60.76-1,5.68-.54,10.2,4.53,13.55A7.92,7.92,0,0,1,60,180.29c-2.28,2.46-4.61,4.08-8,2.54q-3.21-1.44-6.37-3c-2.72-1.31-3.76-3.49-4.07-6.5-2-19.26-4.1-38.5-6.18-57.75a27.65,27.65,0,0,0-1-5.79q-1.05,10.08-2.1,20.14c-1.53,14.85-2.95,29.7-4.69,44.52a8.42,8.42,0,0,1-3.25,4.94c-2,1.53-4.6,2.32-7,3.4-3.25,1.49-5.62-.12-9.38-3.3,1.87-1.17,3.51-2,5-3.13a7.18,7.18,0,0,0,2.76-7.52A393.21,393.21,0,0,1,9.77,101.16Zm-.5-4c1.65-10.51,3.25-20.75,4.86-31C12.23,76.41,7.32,86.22,9.27,97.14Zm50.43-1C61.6,86.1,57.15,77,55.41,67.39Z"/></g></g></svg>