<svg xmlns="http://www.w3.org/2000/svg" viewBox="0 0 60 182.73"><g id="Layer_2" data-name="Layer 2"><g id="Layer_1-2" data-name="Layer 1"><path fill="#329cc0" d="M50.53,179.45c-2.49,3.22-4.91,3.68-8.36,2.35-5.75-2.2-8.06-5.64-8.42-12.1-1.07-19.58-3.06-39.1-4.69-58.65-.35-4.24-.72-8.47-1.08-12.71L26.9,98.2a14.21,14.21,0,0,0-.75,2.73c-2,24.46-4,48.93-6.07,73.39a7.17,7.17,0,0,1-2.5,4.49c-1.89,1.5-4.3,2.35-6.53,3.4-2.92,1.38-4.89-.2-7.1-2.62,1.5-1.31,2.85-2.66,4.37-3.79a8.1,8.1,0,0,0,3.52-7.56c-1-23.68-2-47.35-2.44-71C9.27,90,11.29,82.84,11.87,75.62A73.8,73.8,0,0,0,11.26,60C10,69.36,8.55,78.7,7.6,88.09c-.31,3.09.77,6.3,1.09,9.46a7.55,7.55,0,0,1-.52,2.35l-2.32-.7a18.29,18.29,0,0,1,.47,3.7c-.06.78-.61,1.95-1.2,2.15s-2.1-.4-2.25-.93C1.76,100.25.19,96.33.08,92.39c-.51-17.82,1.59-35.47,4.35-53,.66-4.16,3.47-6.69,7.35-8.07,2.44-.87,4.93-1.61,7.31-2.62,3.08-1.32,3.28-3.24,2-6.19a48.14,48.14,0,0,1-3.48-11.4C17,7,20.3,2.05,23.77.65,27.56-.87,31.91.32,35.16,3.76c.24.26.75.52.72.71-.92,5.37,1.2,11-1.83,16.25-2.94,5.09-2.12,6.72,3.38,8.72,1.16.42,2.32.84,3.51,1.16,5.9,1.55,9,5.16,9.84,11.41,2.26,17.51,4.39,35,3.4,52.72a33.14,33.14,0,0,1-2.1,8.54c-.29.85-1.67,1.33-2.55,2A16.23,16.23,0,0,1,48.31,102a12.06,12.06,0,0,1,.43-3.27L45.49,101c3.39-14.83-1.19-28-2.34-41.54l-1.66.16c.65,6.61.8,13.33,2,19.83,2.14,11.29,1.82,22.6,1.37,33.94-.75,18.74-1.64,37.48-2.27,56.22-.06,1.59,1,3.49,2.13,4.78C46.33,176.24,48.41,177.64,50.53,179.45Z"/></g></g></svg>