<svg xmlns="http://www.w3.org/2000/svg" viewBox="0 0 76 183.22"><g id="Layer_2" data-name="Layer 2"><g id="Layer_1-2" data-name="Layer 1"><path fill="#329cc0" d="M13.07,73.69c-1.38,6-3,11.93-4,18-.4,2.42.57,5.08.92,7.63.3,2.27-.63,2.9-2.91,1.88.27,1.7.52,3.25.77,4.81-2,1.66-3.95,1.67-4.72-.78C1.77,100.94,0,96.5,0,92.13c0-17.7,4.26-34.68,10.17-51.24,1.71-4.78,5.35-7.84,10.33-9.31,3.69-1.09,7.29-2.48,10.22-3.49-1.59-5.66-3.25-10.37-4.2-15.22-.88-4.49,1.94-9.4,6.16-11.49,4.46-2.21,8.85-1.7,13,1.08,1.1.74,2.09,1.64,3,2.33,0,3.85.5,7.79-.14,11.54S46,23.46,44.53,27.57a25.38,25.38,0,0,0,3.3,1.72c2.43.89,4.92,1.6,7.39,2.38A15.51,15.51,0,0,1,65.57,41.5C71.75,58.41,76,75.72,75.2,93.89c-.17,3.69-1.61,7.38-2.91,10.91-.36,1-2.32,1.38-3.54,2-.31-1.22-.69-2.44-.89-3.68a7.6,7.6,0,0,1,.26-2c-2.56,1.49-3,.21-2.75-1.91.28-2.8,1.12-5.71.67-8.4a114.87,114.87,0,0,0-4.82-18.26c.32,2.39.55,4.8,1,7.17,3.29,18.27,2.61,36.66.81,55-1.1,11.13-3.37,22.16-5.51,33.16-.74,3.79,0,6.45,3,8.74,1.24,1,2.32,2.12,3.64,3.34-2.6,2.81-5.14,4.24-8.65,2.63-1.45-.67-2.94-1.27-4.44-1.84-4.29-1.63-5.9-4.6-6.37-9.29-1.76-17.78-4.06-35.51-6.16-53.27a16.78,16.78,0,0,0-1.07-4.84c-.67,5.47-1.39,10.93-2,16.4-1.63,14.58-3.28,29.16-4.78,43.75A7.33,7.33,0,0,1,26,180c-1.91.86-3.86,1.63-5.76,2.51-3.46,1.59-6.12.3-9.6-3.2,1.28-.74,2.49-1.34,3.6-2.1,3.73-2.54,4.48-5.82,3.51-10.28a276.2,276.2,0,0,1-5-28.38c-2.29-21.13-3.11-42.31.84-63.4a6.71,6.71,0,0,0,0-1.1Z"/></g></g></svg>