<svg xmlns="http://www.w3.org/2000/svg" viewBox="0 0 60 180.44"><g id="Layer_2" data-name="Layer 2"><g id="Layer_1-2" data-name="Layer 1"><path fill="#329cc0" d="M24.19,95.66c-.51,5.72-1.12,11.42-1.53,17.14q-2.1,28.61-4.08,57.21c-.38,5.35-4.64,10.07-9.94,10.36-1.64.08-3.35-1.34-5.54-2.3,1.26-1.37,1.78-2.28,2.56-2.73,4.93-2.84,5.86-7.07,5.61-12.51-1-22.18-1.81-44.38-2.19-66.58A91.58,91.58,0,0,1,11.29,75a45.91,45.91,0,0,0-.81-23.07c-1.38,11.74-2.9,23.47-4,35.23-.25,2.58.88,5.28,1.29,7.94.38,2.42.16,2.6-2.27,2.07a11.35,11.35,0,0,1,.09,2.59,26.63,26.63,0,0,1-1.08,3.31c-.89-.82-2.26-1.49-2.56-2.48A35.4,35.4,0,0,1,.14,91.94c-.65-18.18,1-36.22,3.56-54.2a10.29,10.29,0,0,1,7.37-8.84c2.21-.78,4.43-1.54,6.57-2.49,2.77-1.23,3-3.24,1.9-6a50.89,50.89,0,0,1-3.21-10.7c-.69-4.05,1.92-6.87,5.18-8.61a7.73,7.73,0,0,1,9.57,1.26A6.5,6.5,0,0,1,32.8,6.17c.43,5.29.74,10.52-3,15.14-1.36,1.67-.59,3.87,1.66,4.84s4.81,1.93,7.24,2.8c3.93,1.41,6.55,4,7.11,8.22,2.56,18.95,4.82,37.94,3.45,57.13A24,24,0,0,1,47.49,101c-.33.84-1.64,1.3-2.5,1.93a15.53,15.53,0,0,1-1-3.09,13.58,13.58,0,0,1,.43-3.18l-2.86,1.56c3.8-15.94-1.29-30.64-2.37-45.66H37.64c-.13,5.81-1.52,11.93-.16,17.36,4.41,17.6,2.93,35.32,2.46,53-.38,14.67-1,29.34-1.72,44-.19,3.79,2.51,5.31,4.63,7.47,1,1.07,2.66,3.21,2.31,3.74-1.33,2-3.3,2.86-6,1.64-5.07-2.26-8-4.94-8.28-11.42-1.15-23.27-3.25-46.5-5-69.75a28.87,28.87,0,0,0-.59-3.14Z"/></g></g></svg>