<svg xmlns="http://www.w3.org/2000/svg" viewBox="0 0 60 181.46"><g id="Layer_2" data-name="Layer 2"><g id="Layer_1-2" data-name="Layer 1"><path fill="#329cc0" d="M25.66,97.07c-.54,6.1-1.14,12.19-1.62,18.29-1.52,19.31-3,38.62-4.57,57.92A5.55,5.55,0,0,1,17.66,177a24.2,24.2,0,0,1-7.83,4c-1.56.36-3.59-1.31-5.41-2.06.75-1.12,1.26-2.58,2.29-3.31,3.65-2.6,4.93-5.74,4.71-10.39-1.08-22.18-2-44.38-2.4-66.59a119.66,119.66,0,0,1,2-22.4c1.14-6.63,2-13.1.24-20.79-1,7.65-2.07,14.3-2.86,21s-2.3,13.17-.08,19.78c.22.66-.31,1.57-.49,2.37l-2.27-.84a12.13,12.13,0,0,1,.42,3,16,16,0,0,1-1,3.07c-1-.68-2.47-1.18-2.75-2.07a36.17,36.17,0,0,1-2.1-9.3c-.71-18.07,1.24-36,3.77-53.83A10.3,10.3,0,0,1,11.11,30c2.55-.93,5.17-1.69,7.67-2.72,3-1.23,3.32-3.06,2.09-5.88a78.19,78.19,0,0,1-3.38-10C16.18,6.8,19.59,2.76,23.15.9A9.7,9.7,0,0,1,34.58,3.45c.58.72.18,2.21.29,3.34.53,5.36.35,10.49-3,15.18C30.36,24,31,26.24,33.77,27.22l7.66,2.72c3.47,1.23,6.33,3.4,6.91,7.09,3,19.64,5.57,39.34,3.77,59.29a17,17,0,0,1-1.71,5.61c-.4.87-1.65,1.34-2.52,2a17,17,0,0,1-1.17-3,9,9,0,0,1,.18-2.57l-1,.33c-.51-.83-1.58-1.77-1.44-2.47,2.72-13.75-2.12-26.86-2.83-40.31L40.13,56c.47,6.28.47,12.64,1.52,18.83a149.62,149.62,0,0,1,2,32.05c-.94,20.22-1.6,40.45-2.58,60.66-.19,3.94,2.4,5.6,4.65,7.84,1,1,2.48,3.24,2.11,3.77-1.27,1.81-3.28,3-5.76,1.72a8.18,8.18,0,0,0-1-.43c-5.38-1.86-8-5-8.38-11.32-1.37-23.15-3.47-46.25-5.31-69.37a28.66,28.66,0,0,0-.51-2.89Z"/></g></g></svg>