<svg xmlns="http://www.w3.org/2000/svg" viewBox="0 0 60 182.86"><g id="Layer_2" data-name="Layer 2"><g id="Layer_1-2" data-name="Layer 1"><path fill="#329cc0" d="M6,99.3a23.22,23.22,0,0,1,.62,3.94c0,.67-.57,1.8-1.07,1.91-.74.17-2.17-.16-2.38-.67A30.44,30.44,0,0,1,.62,96.84C-1,83.86.87,71,2.46,58.15,3.1,52.9,4.23,47.7,5.12,42.48c1-6.16,4.16-10.42,10.54-11.89a30.82,30.82,0,0,0,5.21-1.86c3-1.32,3.29-2.89,1.91-5.87a54.92,54.92,0,0,1-3.35-9.22c-1.49-5.58,1.24-9.86,5.7-12.4S34,.23,37.55,3.85a5,5,0,0,0,.85.54,18.35,18.35,0,0,0-.15,3.66,20.74,20.74,0,0,1-3,15.18c-1.73,2.64-.87,4.43,1.87,5.5,2.06.8,4.15,1.58,6.28,2.18,5.06,1.4,8,4.85,9.07,9.77,3.89,17.65,6,35.5,5.23,53.59-.15,3.23-1.44,6.44-2.46,9.57-.24.71-1.58,1.06-2.41,1.57a13.6,13.6,0,0,1-1.22-2.88,11.87,11.87,0,0,1,.2-2.94c-3,.41-2.94,2.44-3.06,4.75-1,19.58-2.16,39.15-3.27,58.73a22.26,22.26,0,0,1-.2,3c-.9,4.85.5,8.7,4.71,11.46a14.58,14.58,0,0,1,2.12,2.21c-2.09,2.74-4.33,4.13-7.62,2.43-1.09-.56-2.21-1.09-3.34-1.57-3.5-1.47-5-3.79-5.31-7.88-1.88-24-4.16-47.9-6.31-71.85,0-.42-.19-.82-.95-1.22-.34,3.47-.7,6.93-1,10.4C25.77,131.38,24,152.76,22,174.12c-.18,1.86-1.78,3.87-3.26,5.25s-3.48,1.77-5.23,2.68c-3.19,1.66-5.63.62-8.14-2.41,1.76-1.55,3.75-2.84,5.07-4.63,1.21-1.64,2.46-3.86,2.37-5.76-1.07-21.55-2.37-43.09-3.73-64.63-.12-1.93-1.14-3.8-1.74-5.69Zm43.12-2.92c2.53-11.15-2-21.47-3.91-32.1Q47.13,80.33,49.09,96.38ZM12.68,64.68c-4.2,12-5.79,26.78-3.92,30.74Z"/></g></g></svg>