<svg xmlns="http://www.w3.org/2000/svg" viewBox="0 0 60 182.79"><g id="Layer_2" data-name="Layer 2"><g id="Layer_1-2" data-name="Layer 1"><path fill="#329cc0" d="M50.82,179.58c-2.64,3.27-5.27,4-8.5,2.23A35.31,35.31,0,0,0,38.66,180c-3.23-1.34-4.34-3.68-4.61-7.2-1.85-24.1-3.94-48.19-6-72.27a14.08,14.08,0,0,0-.92-2.48,17.81,17.81,0,0,0-1,3c-2,24.34-4,48.68-6.16,73-.15,1.78-1.58,3.75-3,5s-3.68,1.94-5.54,2.9c-3.22,1.68-5.6.49-8-2.42,1.83-1.55,3.55-3.07,5.34-4.49a7,7,0,0,0,2.78-6.43c-1.08-21.19-2-42.4-3.07-63.59-.11-2.13-1.23-4.21-1.88-6.31l-1.35.33A19.68,19.68,0,0,1,5.9,103a2.75,2.75,0,0,1-1.19,2.17,2.48,2.48,0,0,1-2.31-.84c-1-2.48-2.42-5.1-2.4-7.66C.1,84.44.41,72.24,1.08,60.07c.37-6.5,1.67-13,2.46-19.44.6-4.85,3.36-7.78,7.85-9.29,2.34-.79,4.71-1.49,7-2.38,3.5-1.36,3.95-3.47,2.45-7a46.25,46.25,0,0,1-3-10.1C17,7,19.81,3.55,23.49,1.1c3.26-2.18,7.74-1,11.35,2.45a5,5,0,0,1,1,2.52C36,7,35.9,8,36,9c.5,4.61.07,9-2.42,13.11C31.51,25.56,32.34,27.57,36,29c2.3.89,4.67,1.58,7,2.38,4.32,1.5,7,4.32,7.72,9,2.65,17.09,4.48,34.26,4.06,51.57-.09,3.85-1.35,7.71-2.41,11.47-.23.82-1.9,1.23-2.9,1.83a19,19,0,0,1-.87-3,14.45,14.45,0,0,1,.26-2.91l-1.05-.39c-.7,1.74-1.94,3.46-2,5.23q-1.65,32.72-2.89,65.45c-.06,1.69,1.07,3.7,2.22,5.08C46.64,176.48,48.75,177.84,50.82,179.58ZM43.49,60.91l-1.4.14q2.05,17.16,4.12,34.31C48.12,83.62,44.5,72.38,43.49,60.91Zm-31.19-1L11,59.78c-1.27,11.57-4.33,23-3,34.76Z"/></g></g></svg>