<svg xmlns="http://www.w3.org/2000/svg" viewBox="0 0 224.39 702.86"><g id="Layer_2" data-name="Layer 2"><g id="Layer_1-2" data-name="Layer 1"><path fill="#329cc0" d="M52.65,212.35c-.19,1.94-.72,3.91-.51,5.8,2.11,19-2.25,37-9.16,54.51-6,15.15-7.31,31.32-11,47-2.16,9.11-4.7,18.22-5.74,27.48-.94,8.22-.07,16.64,0,25,.09,6.09.48,12.19.21,18.27-.1,2.35-.6,6.11-4,5.71s-2.83-3.89-2.88-6.48c-.06-2.87.33-5.81-.16-8.6-.29-1.63-1.92-3-3-4.53-1.11,1.47-3,2.85-3.19,4.42-.85,7.42,2.17,13.91,5.69,20.19.48.87,1.44,1.62,1.56,2.51.2,1.44.41,3.71-.36,4.24-1.09.77-3.59,1-4.54.21a30.4,30.4,0,0,1-6.34-6.81c-8.56-12.8-11.1-27-8.06-41.91,2.14-10.49,2.44-21,2.69-31.6q1-43.08,3.14-86.13c.36-7.12,2.56-14.22,4.51-21.16C13.64,213,15,205.76,14.66,198a118.79,118.79,0,0,1,5.21-40.69c4-13,12.47-22.35,24.09-28.91,5.2-2.94,10.8-5.18,16.21-7.76,9.84-4.69,19.49-9.7,27.19-17.67a34.72,34.72,0,0,0,4.39-5.57c2.4-3.78,2.74-7.56,0-11.52A39.72,39.72,0,0,1,88,78.48c-1-2.35-1.25-5-4.84-5.28-1-.08-2.32-2.25-2.74-3.68-1.21-4.06-2.11-8.22-2.93-12.38-.22-1.14-.16-3,.54-3.54,2.77-2.25,1.7-4.76,1.12-7.38a48.5,48.5,0,0,1,2-27.67C84.08,10.57,90.66,6,98.38,3a42.53,42.53,0,0,1,6-2.18A25.84,25.84,0,0,1,111.21,0c3.08.15,6.14,1.19,9.2,1.16A13.87,13.87,0,0,1,131.1,6a4.14,4.14,0,0,0,1.76,1.28c2,.46,4.51.07,5.86,1.18A20.92,20.92,0,0,1,146.5,26c-.32,8.31-1.17,16.61-1.83,25.43,2.58,1,2.56,3.88,1.89,6.84a92.74,92.74,0,0,1-2.93,11.21c-.59,1.65-2.4,2.86-3.67,4.26a16.28,16.28,0,0,0-2.39,2.62C135.66,79.89,134,83.55,132,87c-1.48,2.56-1.87,5.19-.1,7.38,4.28,5.3,8.18,11.32,13.57,15.21,7.41,5.36,15.91,9.31,24.19,13.33,8,3.9,15.88,7.84,22.44,14,10.15,9.58,14,22,15.79,35.2,1.25,9.36,1.08,18.91,1.78,28.36.38,5.19.47,10.61,2,15.47a137.07,137.07,0,0,1,6.64,38.25c.81,24.47,2,48.94,2.14,73.42a186.46,186.46,0,0,0,2.85,33,53.09,53.09,0,0,1-7,38.56,37.88,37.88,0,0,1-6.94,8.26c-1.06,1-3.47.41-5.27.55,0-1.69-.44-3.55.11-5,2.14-5.81,4.79-11.44,6.82-17.29a10.75,10.75,0,0,0-.28-6.21c-.38-1.23-2.06-2.07-3.16-3.09-.85,1.12-2.29,2.16-2.46,3.37-.4,2.94-.17,6-.29,9-.11,2.79.63,6.78-2.9,7.22-3.69.45-4.07-3.77-4.21-6.34a97.34,97.34,0,0,1,.4-17.16c1.83-14.36.11-28.3-3.25-42.27-2.92-12.12-4.67-24.53-7.52-36.67a248.23,248.23,0,0,0-7.53-25.08c-5.53-15.83-9.67-31.78-7.54-48.79.3-2.35-.32-4.83-.52-7.25l-1.16-.15a22.11,22.11,0,0,0-.85,3.53c-.77,10.84-1.31,21.69-2.25,32.51-.76,8.7-2.11,17.35-2.95,26.05-1.49,15.36,1.39,30.38,4,45.39a301.57,301.57,0,0,1,.12,102.16c-3.64,21.78-8.29,43.49-7.11,65.78.56,10.6,1.43,21.18,2.31,31.76,1.88,22.51-1.85,44.35-8.1,65.81-3,10.29-7.59,20.17-10.12,30.56-4,16.5-6.85,33.32-3.61,50.39.8,4.24,2.76,8.26,4.17,12.39,1.29,3.78,2.83,7.5,3.77,11.36,1.27,5.18-.58,8.59-5.62,10.27a52.37,52.37,0,0,1-11.29,2.53c-5,.48-9.09-2-10.69-6.62a90.13,90.13,0,0,1-3.58-16.32,107.8,107.8,0,0,1-1-14.92c-.06-10.48.16-21,.29-31.43.3-24.23,1.73-48.45-.89-72.66a118.87,118.87,0,0,1,1.91-39.14c3.49-15.43,2.49-30.49-.6-46-3-14.87-3.9-30.17-5.14-45.33-.67-8.29-.12-16.68-.12-25h-1.07c-.49,10.72-.45,21.51-1.6,32.17-1.74,16.11-3.72,32.23-6.7,48.15-2.06,11-1.11,21.61,1,32.31,3.19,16.46,3.06,33,1.63,49.63-.89,10.43-1,21-.88,31.44.27,19.62,1.38,39.22,1.4,58.83,0,10.32-1.36,20.65-2.51,30.94a23.05,23.05,0,0,1-3.25,8.67c-2.5,4.28-6.54,6-11.51,5.12a70.68,70.68,0,0,1-9.46-2.23c-5.16-1.77-6.9-4.73-5.91-10.13a32,32,0,0,1,2.67-8.55c7.36-14.64,7.12-29.94,5.35-45.76-1.46-13-5-25.12-9.44-37.24-8.86-24.14-13.82-49-12.8-74.86.41-10.35,1.3-20.69,2.3-31,1.55-15.83-.31-31.44-2.88-47-4.3-26.13-8.86-52.24-8.42-78.86.34-20.41,3.23-40.57,6.84-60.61,2.71-15.06,2.34-30,.49-45.13-1.42-11.64-2-23.38-3-35.07-.39-4.64-.86-9.28-1.3-13.91Z"/></g></g></svg>