<svg xmlns="http://www.w3.org/2000/svg" viewBox="0 0 184.55 662.43"><g id="Layer_2" data-name="Layer 2"><g id="Layer_1-2" data-name="Layer 1"><path fill="#f7c1b4" d="M92.2,356.35c-.39,3-.86,6.1-1.14,9.16-1.13,12.3-2.66,24.59-3.17,36.91-.6,14.34-.31,28.71-.39,43.07,0,1,.21,2,.23,3,.58,22.34,1.81,44.68,1.52,67s-2.32,44.9-3.13,67.36c-.47,13.1,0,26.22,0,39.34,0,10.23,0,20.48-.6,30.69-.43,7.14-5.45,10.44-12.57,9.29-1.24-.19-2.48-.34-3.69-.64-5.31-1.33-7-4-5.87-9.34a23,23,0,0,1,1.33-5.06c6.39-13.63,5.37-27.93,2.87-42-4.39-24.7-9.7-49.23-14.67-73.81-3.69-18.28-4.15-36.7-2.48-55.21A171.2,171.2,0,0,0,41,402.86a184.77,184.77,0,0,1-10.63-60.63A196,196,0,0,1,40.58,280a326.63,326.63,0,0,0,9.78-38c2.5-12.51,1.44-25.25-2.12-37.46-1.54-5.31-5.16-10-7.84-15L39,190c-.95,4.82-1.59,9.72-2.89,14.45-5.26,19.14-5.61,39-9.07,58.4-2.78,15.58-6.93,30.93-10.79,46.31-1.74,6.93-1.3,13.33,2.3,19.5,3.32,5.66,4.21,11.95,4.72,18.34.32,4,.71,8,.74,11.95,0,1.26-1.05,2.52-1.62,3.78-.93-.88-2.18-1.61-2.73-2.7-1.34-2.63-2.35-5.42-3.5-8.15l-.94.12c0,1.46-.38,3,.07,4.36,1.35,4,3.19,7.82,4.48,11.84.52,1.64.1,3.59.11,5.39-1.73-.61-4-.72-5.09-1.92a51.55,51.55,0,0,1-13.3-31.9C.77,327.91-.14,316,0,304.2c.25-18,1.07-36,2.27-53.9A71.8,71.8,0,0,1,6.5,231c3.25-9,3.9-18.26,4.59-27.59C12.35,186.2,13.41,169,15,151.84a85.35,85.35,0,0,1,3.81-17.14c2.95-9.5,9.45-15.71,19.1-18.41,4.81-1.35,9.7-2.39,14.48-3.83,6.28-1.9,12.25-4.59,16.75-9.51,2.13-2.32,3.6-5.24,5.54-8.15l-5-2.92L73,90.45c-5.3-.94-9.91-1.64-13.22-6l3.78-4-9.21-1.8,2.79-3.66H53.75c-.06-.38-.22-.74-.13-.81,3.52-3.06,3.23-6.21,1.21-10.22-3.09-6.13-3.09-13-1.47-19.45a208,208,0,0,1,8.4-27.11A26.17,26.17,0,0,1,83.59.55a72.8,72.8,0,0,1,17.64,0,25.41,25.41,0,0,1,20.3,13.8C128,26.7,132.41,39.87,132.1,54.08a28,28,0,0,1-2.51,10.81c-1.62,3.5-1.7,6.08,1.26,8.61.31.26.41.78.79,1.57l-4.28-.28,3.33,3.79-9.36,1.74,3.81,4.15c-3.48,4.33-8.15,5.25-13.83,5l3.47,2.74L111,94.41c.65,4.45,3.3,7.54,6.49,10.24,5.67,4.8,12.42,7.33,19.52,9.09,1.57.39,3.15.8,4.74,1.08,15.18,2.7,23.95,12,26.33,26.88,1.81,11.31,2.74,22.78,3.74,34.21,1.25,14.18,2.12,28.39,3.25,42.58a22.42,22.42,0,0,0,1.35,5.81,124.13,124.13,0,0,1,7.36,41.48c.31,18.48,1,37,.76,55.44a193.1,193.1,0,0,1-2.93,28.64c-1.33,8.15-5.86,15.05-11,21.44-.47.58-1,1.34-1.61,1.52-1.31.39-2.92.92-4,.45-.63-.28-.83-2.48-.54-3.64.38-1.52,1.51-2.85,2.19-4.31,2-4.26,3.47-8.64,3.5-13.32l-1.13-.42c-.92,2.05-1.81,4.11-2.76,6.15a20,20,0,0,1-2.3,4.23c-.28.35-1.84-.23-2.73-.58-.26-.1-.34-.93-.3-1.41.74-10.16-.22-20.68,4.88-30,3.95-7.24,4.59-14.41,2.52-22.35-3.76-14.37-7.38-28.8-10.24-43.37-1.9-9.64-2.05-19.62-3.57-29.35-2.33-15-5.16-30-7.94-45.83a36.4,36.4,0,0,0-11.4,21.14c-3.67,20.38-.29,39.95,5.66,59.43,4.08,13.35,7.92,26.82,10.82,40.46,5.27,24.76,3.34,49.49-2.65,73.89-3.48,14.16-7.72,28.14-11.74,42.18-3.35,11.69-3.69,23.62-3.24,35.66.5,13.48,1.17,27,1.18,40.45,0,17.36-4.26,34.12-7.77,51-3.78,18.2-7.49,36.44-10.49,54.78-2.1,12.85-2.77,25.86,3,38.29,1.12,2.43,1.44,5.28,1.84,8,.5,3.5-1.28,5.8-4.58,6.72a36.37,36.37,0,0,1-7.34,1.37,9.09,9.09,0,0,1-9.89-6.91A20.83,20.83,0,0,1,99,649.6c.07-13,.57-26,.37-38.94-.23-15.23-.64-30.48-1.65-45.68-1.88-28.19-3.23-56.33-.67-84.59,1-10.91.3-22,.34-33,0-13.74.48-27.49-.06-41.2-.4-10.2-2.21-20.34-3.15-30.53-.59-6.42-.75-12.87-1.1-19.31Z"/></g></g></svg>