<svg xmlns="http://www.w3.org/2000/svg" viewBox="0 0 52.17 169.26"><g id="Layer_2" data-name="Layer 2"><g id="Layer_1-2" data-name="Layer 1"><path d="M21.83,21.7c-1.8-.36-2.63-.61-3.47-.67-2.94-.23-3.77-1.63-3-4.48a21.15,21.15,0,0,0,.32-5.05c.07-3.87,1-7.37,4.4-9.66a9.59,9.59,0,0,1,11.13-.12,9.6,9.6,0,0,1,3.83,4.7c1.3,4.17,2,8.54,3,13.24l-7.92,2.06c1.09,1.5,1.94,2.72,2.85,3.87a1.7,1.7,0,0,0,1,.43c10,1.68,12.53,8.77,13.39,17.63,1.31,13.5,3.29,26.93,4.69,40.41a45.26,45.26,0,0,1-.61,11.37c-.17,1.17-2,2.08-3.12,3.11-.31-1.36-.65-2.71-.92-4.08-.06-.34.11-.72.07-.49-1-.74-2.48-1.46-2.4-1.79,2.82-11.63-3.43-22-4.54-33A36.13,36.13,0,0,0,39.16,52a22.25,22.25,0,0,0,.73,14.21,67.11,67.11,0,0,1,4.25,30.88c-1.46,17.7-2.92,35.4-4.57,53.09-.56,6-1.92,12,4.92,15.33-2.7,4.27-4.48,4.64-8,2.41-3.35-2.13-4.9-4.72-5.16-9C30,136.16,28.12,113.44,26.45,90.7l-.9,0c-.36,4.22-.78,8.44-1.08,12.67-1.35,19.07-2.78,38.14-3.91,57.23-.27,4.62-3.49,6.31-6.61,8.08-1.1.62-3.22,0-4.66-.65-1.95-.82-2.19-2.4-.3-3.61,4.28-2.76,4.11-6.74,3.72-11.12C11,133.87,9.37,114.45,7.77,95a65,65,0,0,1,4.51-29.36,19.32,19.32,0,0,0,.24-14.08c-.46,3.37-.7,6-1.21,8.58-.92,4.59-1.83,9.19-3.06,13.7C6.72,79.49,5.21,85,6.82,90.92c.52,1.91.29,3.47-1.56,2.64-.63,1.71-1.08,4.73-1.89,4.84C.28,98.79.14,95.65.09,93.76A130.51,130.51,0,0,1,.56,76.07C2,63.45,3.88,50.89,5.42,38.28c.73-6,3.76-9.71,9.61-11.22a11.68,11.68,0,0,0,4.1-1.61C20.17,24.66,20.75,23.25,21.83,21.7Z"/></g></g></svg>