<svg xmlns="http://www.w3.org/2000/svg" viewBox="0 0 66.37 169.16"><g id="Layer_2" data-name="Layer 2"><g id="Layer_1-2" data-name="Layer 1"><path d="M9.63,165.65c9.43-3.78,7.08-11.12,6.11-17.86-1.52-10.49-3.54-20.91-5-31.4C8.18,98.75,8.2,81.22,13.61,64a1.82,1.82,0,0,0-.16-1.47c-1.74,9.29-7.63,17.83-4.73,28,.6,2.08.46,4.06-2.7,2.62,0,.32,0,.56,0,.8C5.83,95.49,8.14,97.61,5,98.5c-2.89.83-3.24-1.71-3.87-3.39A16,16,0,0,1,0,89.35C.3,75.17.69,61,4.34,47.12A76.61,76.61,0,0,1,7,39.45c2.59-6.8,7.07-11.37,14.5-12.86,2.26-.46,5.34-.5,5.91-4.1A7.57,7.57,0,0,0,26,21.92c-5.07-.88-5-.86-4-6a20.87,20.87,0,0,0-.14-4c0-3.87.9-7.43,4.17-9.8a10.32,10.32,0,0,1,11.52-.68c1.07.56,2.47,1.26,2.84,2.24a90.08,90.08,0,0,1,4,12.34c1,4.26-1.75,5.89-6.82,5.77a24.78,24.78,0,0,0,2.79,3.43,6.1,6.1,0,0,0,2.73,1.07c9.57,1.5,14.11,7.94,17,16.49,5.08,15.08,6,30.68,6.23,46.37,0,2.47-1,5.07-2,7.39-.43,1-2.16,1.33-3.29,2-.35-1.22-.76-2.42-1-3.66a5.37,5.37,0,0,1,.37-1.76c-3.75,1.72-3.06-.83-2.89-2.77.75-8.71-1.58-21.75-5.79-30,.41,1.61.74,3.26,1.26,4.83,5.18,15.75,4.89,31.86,2.87,48-1.45,11.49-3.55,22.9-5.27,34.36-.53,3.54-1.62,7.3-.9,10.61.65,3,3.45,5.48,5.4,8.35-2.25,3-4.14,3.24-7.74,2-6.26-2.24-8.68-6.39-9.14-13-1.16-16.48-3.06-32.9-4.67-49.35-.07-.72-.26-1.42-.43-2.3-1.19,11.91-2.32,23.59-3.54,35.27-.73,7-1.67,14-2.4,21-.65,6.13-5.93,7.24-10.19,8.89-1.8.69-4.53-1-6.84-1.6C10,166.72,9.8,166.19,9.63,165.65Z"/></g></g></svg>