<svg xmlns="http://www.w3.org/2000/svg" viewBox="0 0 62.17 169.18"><g id="Layer_2" data-name="Layer 2"><g id="Layer_1-2" data-name="Layer 1"><path d="M8.86,167.32a10.71,10.71,0,0,1,.51-1.68c6.13-3.54,5.85-8.82,5-15C12.09,135.15,10.4,119.58,8.77,104a94.27,94.27,0,0,1,2.45-33.44A32.55,32.55,0,0,0,7.56,89c.11,1.64,2,4.63-2.18,4.77a7.67,7.67,0,0,1,.32,2.5c-.17.79-.7,1.88-1.32,2.08S2.19,98.24,2,97.71C1.09,95.84.12,93.8.08,91.81-.27,75.62.41,59.45,4.74,43.75a34.85,34.85,0,0,1,6.56-12.6c2-2.38,5.94-3.11,9-4.58l5.55-2.7-.28-1.08a11,11,0,0,0-1.53-.6c-5-1.14-4.89-1.12-3.93-6.15A21.69,21.69,0,0,0,20,12c0-4,.93-7.63,4.4-10C28.08-.59,32-.55,35.93,1.48c1,.5,2.26,1.14,2.57,2a130.3,130.3,0,0,1,4.09,13.32c.84,3.6-1.44,5-4.77,5.1a8.6,8.6,0,0,0-2,.83,15.07,15.07,0,0,0,2.83,2.7A19.24,19.24,0,0,0,43.13,27C49.2,28.42,53.41,32.17,55,38a196.86,196.86,0,0,1,5.7,25.17c1.18,8.4,1.19,17,1.44,25.48a22.68,22.68,0,0,1-1.32,7.57c-.33,1-2,1.56-3.05,2.32A35.63,35.63,0,0,1,56.6,95c-.13-.53.22-1.18.37-1.87-3.58,1.53-3.14-1-2.72-2.73A23.55,23.55,0,0,0,52.77,75c.28,6.21,1.31,13,.76,19.63C52,112.6,49.93,130.47,48,148.35c-.71,6.5-3.65,13.47,4.95,17.09-2.61,3.93-4.68,4.52-8.19,2.89-4.39-2.05-7.51-4.23-8-10.17-1.47-19.54-3.83-39-5.81-58.09-1.06,11.19-2.11,22.83-3.28,34.45q-1.35,13.44-3,26.84c-.61,5.09-5.32,5.94-8.85,7.37C14.05,169.46,11.31,167.88,8.86,167.32ZM12.09,65.68l.68.16Q14.41,59.18,16,52.53l-.88-.21Zm37-1.37.71-.32q-1.34-5.9-2.66-11.77l-.85.19Q47.71,58.37,49.1,64.31Z"/></g></g></svg>