<svg xmlns="http://www.w3.org/2000/svg" viewBox="0 0 55.75 169.15"><g id="Layer_2" data-name="Layer 2"><g id="Layer_1-2" data-name="Layer 1"><path d="M27.83,98q-2.7,31.32-5.38,62.65c-.3,3.39-3.77,7.57-7.88,8.28-1.9.33-4.1-1.08-6.25-1.73.47-1.24.5-1.74.74-1.89,5.5-3.34,5.24-8.32,4.64-13.9-2.08-19.49-3.86-39-5.58-58.55-.77-8.74,1.08-17.11,3.93-25.39,1.48-4.31,1.88-9,2.78-13.51l-1.45-.3c-.28,1.73-.45,3.49-.86,5.19C10.86,65.8,9,72.7,7.48,79.68c-.57,2.71-.36,5.59-.44,8.4C7,90.21,9.4,92.94,5.48,94.16c-.21.07.16,1.45-.1,2.08A4.24,4.24,0,0,1,3.7,98.49c-.48.2-2-.67-2.14-1.28C.84,94.38-.18,91.42,0,88.6.9,76.68,2.11,64.78,3.32,52.89c.46-4.53,1.39-9,1.81-13.56.6-6.53,4.22-10.25,10.3-12a21.07,21.07,0,0,0,5.17-1.92c1.13-.68,1.81-2.09,3.08-3.67A33.45,33.45,0,0,0,20.24,21c-3.22-.24-3.87-1.85-3-4.78.44-1.45.17-3.12.21-4.69.09-4,1-7.57,4.64-9.88C26-.79,29.92-.4,33.57,2a7.75,7.75,0,0,1,3.12,3.93c1.26,4.41,2.06,9,3.1,13.72l-7.74,2a31.92,31.92,0,0,0,2.74,3.72,4.55,4.55,0,0,0,2.35,1c9.2,1.7,13,7.44,13.73,16.54,1.23,15,3.27,29.89,4.8,44.84a18.93,18.93,0,0,1-.77,7.29c-.43,1.37-2.14,2.35-3.27,3.5l-2.19-4.81c-.2-.38-1.44-1.63-1.21-2.49,2.11-7.78-1-14.82-2.74-22.08-1.06-4.43-1.72-9-2.57-13.43-.14-.76-.36-1.51-.55-2.26l-1.12.15c.4,3.8-.11,8,1.34,11.35,5.88,13.48,5.53,27.35,4,41.46-1.76,16.06-3.17,32.15-5,48.19-.5,4.33.49,7.47,4.09,9.83a7.78,7.78,0,0,1,1.22,1.28c-2.3,3.81-4.21,4.11-7.83,2.39-5.2-2.47-6-6.75-6.37-11.85-1.35-19.43-3-38.84-4.5-58.26Z"/></g></g></svg>