<svg xmlns="http://www.w3.org/2000/svg" viewBox="0 0 50.39 169.28"><g id="Layer_2" data-name="Layer 2"><g id="Layer_1-2" data-name="Layer 1"><path d="M7.15,167c.54-1.2.56-1.37.65-1.42,6-3.32,6-8.69,5.52-14.63C11.8,132.51,10.62,114,9.25,95.59c-.7-9.37.1-18.61,4-27.18,3-6.63,2.09-12.78-.33-19.77C10.55,60.32,8.18,71.38,6.22,82.51c-.48,2.69.5,5.62.58,8.44a9.94,9.94,0,0,1-1,3l-1.15-.25a5.8,5.8,0,0,1,.26,2.1c-.21.8-.68,1.93-1.28,2.1a2.43,2.43,0,0,1-2.18-1C.76,94.72-.14,92.38,0,90.16.58,82.05,1.43,74,2.38,65.88,3.46,56.7,4.85,47.55,6,38.37c.72-6,3.33-10.13,9.53-11.66,2.36-.59,5.27-1.13,5.12-4.86a6.56,6.56,0,0,0-1.32-.58c-5.2-.92-5.15-.9-4.45-6.29a32.72,32.72,0,0,0-.23-3.67c0-3.73,1-7.13,4.22-9.38A9.64,9.64,0,0,1,30,1.62a9.42,9.42,0,0,1,3.91,4.62c1.33,4.28,2,8.76,3,13.46L30.1,21.44c-1,2.58.43,4.07,2.51,4.45,9.23,1.71,11.47,8.2,12.32,16.39,1.53,14.84,3.7,29.6,5.36,44.43a27.67,27.67,0,0,1-.81,8.75c-.22,1-1.81,1.77-2.78,2.64-.36-1.2-.76-2.38-1.07-3.59-.08-.32.12-.71,0-.3-1-1-2.22-1.76-2.13-2.24,2.69-14.84-4.93-28.23-5.86-42.56-2.39,5.92-3.87,11.68-.94,18,4.94,10.64,4.85,22,4,33.44-1.31,18.2-2.63,36.41-4.12,54.6-.29,3.61.64,6.24,3.64,8.21a21.54,21.54,0,0,1,2.44,2.1c-2.36,4.08-4.11,4.43-7.68,2-3.21-2.15-4.55-4.79-4.76-8.86-1.19-22.54-2.77-45.06-4.23-67.59,0-.56-.25-1.12-1.24-1.85A19.75,19.75,0,0,0,24,92.82Q21.84,127,19.72,161.14c-.2,3.07-4,7.83-7.08,8C10.88,169.16,9.06,167.78,7.15,167Z"/></g></g></svg>