<svg xmlns="http://www.w3.org/2000/svg" viewBox="0 0 70.82 169.08"><g id="Layer_2" data-name="Layer 2"><g id="Layer_1-2" data-name="Layer 1"><path d="M58.25,166.09c-2.85,2.9-5.36,3.83-9.13,2.18-5.61-2.46-8-6-8.47-12.32-1.23-15.71-3.46-31.34-5.28-47-1.26,10.8-2.52,21.68-3.79,32.56l-2.25,19.1a2.21,2.21,0,0,1,0,.37c-1.09,5.35-6,6.33-9.91,7.84-1.83.71-4.57-.94-7.47-1.66,1.08-1.45,1.32-2.12,1.79-2.36,5.73-3,5.83-8,4.65-13.36-2.35-10.84-5-21.62-7-32.53-1.48-8.2-2.06-16.57-3.06-25.06l-2.06-.25a9.54,9.54,0,0,1,.26,2.54C6.38,97,6,98.25,5.43,98.36c-.87.2-2.44,0-2.78-.65A14.4,14.4,0,0,1,.39,91.93C-1,72.8,1.08,54.28,10.39,37c2.89-5.36,6.83-8.85,12.8-10.23A49.75,49.75,0,0,0,30,24.18L29.66,23a17.49,17.49,0,0,0-2-.52C23,21.79,22.77,21.34,24,16.8a12.88,12.88,0,0,0,0-3.92c-.21-4.16.76-8,4.13-10.58,3.63-2.8,7.76-3,11.85-.87,1.17.6,2.69,1.39,3.12,2.46a73.76,73.76,0,0,1,4.07,12.32c.88,4.34-1.67,6.47-6.3,6.23l-.25,1c1.11.8,2.14,2.15,3.34,2.32,11.87,1.65,16.44,10.41,20.35,20.13,5.8,14.4,7,29.43,6.35,44.7a14.06,14.06,0,0,1-1.86,5.92c-.54,1-2.15,1.38-3.28,2-.35-1.18-.78-2.34-1-3.54a5,5,0,0,0-.44-2.21c-.71,1-2,2-2,3.08-.3,15.79-3.92,31-7.52,46.27-1,4.19-1.4,8.53-2.49,12.69s.27,6.91,3.7,9.06A25,25,0,0,1,58.25,166.09ZM56.22,62c2,8.73,4.08,17.45,6.18,26.4C64.17,78.58,59.15,70.53,56.22,62ZM8.82,90.27c.74-4.83,1.26-9.6,2.24-14.28s2.47-9.41,3.73-14.11C11.87,71.17,5.68,79.8,8.82,90.27Z"/></g></g></svg>