<svg xmlns="http://www.w3.org/2000/svg" viewBox="0 0 55.84 169.21"><g id="Layer_2" data-name="Layer 2"><g id="Layer_1-2" data-name="Layer 1"><path d="M10.44,70.57C8.23,76.41,5.77,82.2,7.37,88.7a9.28,9.28,0,0,1,.16,3.67c-.1.54-1.11.91-2.28,1.79,0-.62,0-.26,0,.1-.18,1.47,1.83,3.84-1,4.1-1,.1-2.91-1.91-3.28-3.26A33.4,33.4,0,0,1,0,86.68C-.08,70.2,2.55,54,5.49,37.86c1-5.6,4.29-8.64,9.36-10.31a32.55,32.55,0,0,0,5.9-2.11c1.11-.62,1.74-2.11,2.94-3.68-1.81-.39-2.61-.67-3.44-.74-3.17-.24-3.93-1.74-3-4.74.49-1.57.19-3.38.23-5.08.09-3.74,1-7.11,4.3-9.34A9.77,9.77,0,0,1,33,1.64a8.3,8.3,0,0,1,3.58,4c1.36,4.52,2.18,9.21,3.26,14.05L33,21.45c-.59,2.7,1,4.05,3,4.4,10.89,1.9,14.89,9.09,15.75,19.29,1.18,14.24,2.85,28.44,4.08,42.68a25.66,25.66,0,0,1-1.09,8.35c-.26,1-1.93,1.6-3,2.39-.35-1.21-.77-2.41-1-3.63a4.64,4.64,0,0,1,.17-1.55L48,93.25c-2,21.14-4.15,42.71-6.07,64.3-.14,1.58.94,3.47,1.94,4.88.88,1.25,2.43,2,3.56,2.89-3,4.37-4.73,4.72-8.33,2.73-4-2.2-5.84-5.12-6.14-10-1.15-19.21-2.85-38.38-4.37-57.57a2.45,2.45,0,0,0-1.22-2c-1.48,19.51-3.07,39-4.34,58.54-.31,4.81-1.44,8.52-6,10.87-3.77,1.93-4.94,1.92-8.12-1.67,0-.12,0-.31,0-.36,5.51-4,5.17-9.47,4.52-15.51-2-18.27-3.9-36.57-4.94-54.91-.47-8.25,1.2-16.63,1.9-25q2.17-8.09,4.36-16.17l-1.23-.3Q12,62.33,10.44,70.57Zm35.45.67-3.3-17.51a38,38,0,0,0,3.34,17.48c.79,5.93,1.58,11.86,2.45,18.46C50.22,82.67,48,77,45.89,71.24Z"/></g></g></svg>