<svg xmlns="http://www.w3.org/2000/svg" viewBox="0 0 58.21 169.13"><g id="Layer_2" data-name="Layer 2"><g id="Layer_1-2" data-name="Layer 1"><path d="M29,97.9q-1.87,24.15-3.76,48.29c-.36,4.8-.59,9.6-.9,14.4-.36,5.53-5.17,6.64-9,8.18-1.68.69-4.3-.91-6.41-1.45.19-1.23.15-1.6.28-1.69,5.39-3.49,5.47-8.47,4.77-14.23-2.23-18.49-4-37-6.06-55.53-.13-1.1-1.33-2.08-2.73-2.72a8.19,8.19,0,0,1,.3,2.47,15.23,15.23,0,0,1-1.17,2.86c-1-.51-2.53-.82-2.77-1.56C.8,94.37-.18,91.63,0,89.05c1.28-16.34,2.8-32.65,4.38-49,.68-7,4.82-11,11.53-12.79a77,77,0,0,0,8.25-3.22c-.74-1.12-.83-1.44-1-1.49C18,21.1,18,21.11,18.54,15.49c.14-1.57-.27-3.19-.21-4.78.33-8.58,8.14-13.31,15.26-9.22,1.14.66,2.59,1.58,2.93,2.68,1.36,4.35,2.41,8.8,3.41,13.25.68,3-1.11,4.14-3.82,4.42-.66.07-1.27.57-2.92,1.36,2.16,1.26,3.54,2.6,5.1,2.88C49.17,28,53.78,34.75,54.5,45.35c1,14.51,2.54,29,3.67,43.48a17.23,17.23,0,0,1-1.09,6.87c-.4,1.16-2,2.73-3.06,2.67-2.51-.15-1.5-2.2-1.21-3.7a2.21,2.21,0,0,0-.37-1.86c-.71,1-1.93,1.94-2,3-2.28,19.72-4.26,39.48-6.72,59.18-.64,5.18,2.07,8,5.43,10.66-2.77,3.86-4.47,4.19-8.2,2.53-4.67-2.07-7.14-4.88-7.42-10.55-1-19.92-2.69-39.82-4.11-59.72Z"/></g></g></svg>