<svg xmlns="http://www.w3.org/2000/svg" viewBox="0 0 52.36 169.56"><g id="Layer_2" data-name="Layer 2"><g id="Layer_1-2" data-name="Layer 1"><path d="M13.62,49.52c-2.43,11.13-4.86,21.81-7,32.54-.42,2.07.07,4.36.28,6.53.17,1.77.56,3.52,1,6.2l-3.22-2a13.44,13.44,0,0,1,.25,3,15.61,15.61,0,0,1-1,3c-1-.63-2.69-1.13-2.82-1.9-.6-3.61-1.4-7.36-1-10.93,1.88-16,4.2-32,6.27-48,.74-5.7,3.68-9.23,9.32-10.51a22.46,22.46,0,0,0,3.12-1.14C21,25.39,22,24,21.14,21.47c-1-.16-1.93-.38-2.9-.47-3.13-.3-4-1.73-2.87-4.77.48-1.26.22-2.84.18-4.27-.11-3.88.75-7.46,4-9.86a9.83,9.83,0,0,1,11.14-.7c1.07.57,2.39,1.28,2.83,2.27,2.14,4.75,4.29,9.57,3.55,15-.09.66-1.15,1.4-1.92,1.71a49.48,49.48,0,0,1-5.47,1.4,41.71,41.71,0,0,0,3.85,4.43,7.07,7.07,0,0,0,3.08,1.19c6.09,1.3,8.74,5.39,9.49,11.24,1.41,10.88,3,21.74,4.4,32.62C51.2,76.61,52,82,52.32,87.4a31.9,31.9,0,0,1-.87,8.74c-.22,1-1.76,1.82-2.7,2.72a31.94,31.94,0,0,1-1.31-3.49,7.82,7.82,0,0,1,.1-2.32L44.7,94.77c.22-2.2.47-3.7.49-5.2.05-3.51.44-7.11-.13-10.54-1.54-9.1-3.51-18.12-5.31-27.18-.12-.58-.32-1.13-.71-2.47-1.24,6.85-1.73,12.77.56,18.76,4.48,11.73,4,24,3.2,36.19-1.13,16.86-2.17,33.73-3.48,50.58-.34,4.32.38,7.77,4.15,10.25a12.3,12.3,0,0,1,1.69,2.19c-2.29.89-4.2,2.26-6.09,2.21-2.72-.07-7.11-4.78-7.26-7.07q-1.87-27.69-3.68-55.39c-.32-4.92-.54-9.85-.87-14.77a12.61,12.61,0,0,0-.63-2.45l-1.06,0c-.21,1.48-.52,3-.61,4.45-1.42,21.55-3,43.08-4.07,64.64-.24,4.71-2,7.8-5.94,9.67a7.11,7.11,0,0,1-5,.07c-2.48-.89-2.79-2.65-.41-4.28,3.41-2.33,3.8-5.54,3.52-9.4C11.59,135.14,10.29,115.2,9,95.25A63.72,63.72,0,0,1,13.17,67.3C15.5,61.46,14.43,55.75,13.62,49.52Z"/></g></g></svg>