<svg xmlns="http://www.w3.org/2000/svg" viewBox="0 0 27.88 92.87"><defs><style>.cls-1{fill:#f7c1b4;}</style></defs><g id="Layer_2" data-name="Layer 2"><g id="Layer_1-2" data-name="Layer 1"><path class="cls-1" d="M5.92,29.15c-1,5.64-2.13,11.54-3.24,17.43-.28,1.47-.46,2.8.49,4.21a12.08,12.08,0,0,1,1,3.44l-.42.16L2.71,52.54c-.49,1.82,1,3,1.1,4.44l-.4.29c-.68-.7-1.41-1.35-2-2.1C.11,53.67,0,51.76,0,50A72.58,72.58,0,0,1,.53,38.15a89.44,89.44,0,0,0,.9-10.68,24.71,24.71,0,0,1,1.05-5.35A3,3,0,0,1,5.3,19.91,23.67,23.67,0,0,0,9.36,19a3.49,3.49,0,0,0,1.55-1,1.24,1.24,0,0,0,0-1.21A23.66,23.66,0,0,0,9,15.21a4.38,4.38,0,0,1-1.12-1.28c-.57-1.16-1-2.36-1.51-3.56a5,5,0,0,1-.2-1C6.08,8.68,6,8,5.93,7.59c.19-.73.4-1.31.49-1.91a6.26,6.26,0,0,1,3.05-4.5C12.89-1,18.2,0,20.27,3.21a14.59,14.59,0,0,1,.81,2.09c.27.63-.36,1.56.64,1.94,0,0,.06.16,0,.23C21.5,8.58,21.3,9.71,21,10.8a26.92,26.92,0,0,1-1.31,3.32,3.69,3.69,0,0,1-1,1.11c-.47.39-1.06.64-1.49,1.06-.9.88-.83,1.73.36,2.2a27.33,27.33,0,0,0,5,1.41,3.41,3.41,0,0,1,3.09,2.74,32,32,0,0,1,.87,5.63,75.32,75.32,0,0,0,1,10.91c.55,3.43.22,7,.27,10.49,0,.6-.06,1.2-.06,1.8a7,7,0,0,1-2.58,5.2c-.23.22-.69.2-1,.29a4.46,4.46,0,0,1,.15-1c.39-1,.83-2.07,1.26-3.11l-.38-.17-1.13,1.77-.39-.16c.34-1.23.41-2.64,1.09-3.63a4.41,4.41,0,0,0,.56-3.6c-.89-5-1.84-9.93-2.75-14.9a15.31,15.31,0,0,0-.65-3,2.33,2.33,0,0,0-.11.51c.05,4.06-.29,8.11.65,12.16A34.29,34.29,0,0,1,21.69,59c-.78,2.83-2,5.68-1.55,8.65.81,5.77-.86,11.23-1.54,16.82a30.26,30.26,0,0,0,.2,6.3c.13,1.37,0,1.73-1.38,1.9-3.07.37-3.17.18-2.37-2.82a19.06,19.06,0,0,0,.38-7.45c-.36-2.84-.84-5.68-1-8.53-.1-1.6.35-3.24.41-4.86.07-1.94,0-3.89-.05-5.83-.08-1.67-.35-3.33-.4-5-.07-2.27,0-4.53,0-6.8h-.46c-.09,1.29-.18,2.58-.28,3.87-.22,3.1-.51,6.19-.66,9.29-.07,1.59.16,3.18.16,4.77,0,3,.14,6-.13,8.93-.37,4-1.31,7.88-.11,11.83.11.38.25.76.38,1.13.36,1.07-.12,1.74-1.27,1.67a15,15,0,0,1-1.89-.24c-.8-.15-1.23-.64-1-1.46C10.34,86.27,8.73,81.6,8,76.88a36.79,36.79,0,0,1-.23-9A21.57,21.57,0,0,0,7,62.21C6.38,59,5.36,55.79,5,52.53a33.75,33.75,0,0,1,.17-8.81,58.73,58.73,0,0,0,1-12.48C6.11,30.45,6,29.67,5.92,29.15Z"/></g></g></svg>