<svg xmlns="http://www.w3.org/2000/svg" viewBox="0 0 40.81 153.9"><defs><style>.cls-1{fill:#f7c1b4;}</style></defs><g id="Layer_2" data-name="Layer 2"><g id="Layer_1-2" data-name="Layer 1"><path class="cls-1" d="M8.53,40.07c-.35,2.55-.71,5.09-1,7.64s-.61,5.38-1,8c-1,6-2,12-3,18A2.64,2.64,0,0,0,4,75.41c1.43,2.17,1.71,4.64,2.09,7.09l-.42.22L3.72,79.18a8.89,8.89,0,0,0,.94,4.76c.25.63.63,1.21.85,1.84a3,3,0,0,1,0,1.08c-.37-.08-.89,0-1.07-.28a39.62,39.62,0,0,1-3.11-4.2C0,80.16.18,77.58.09,75.14-.06,70.59,0,66,.08,61.47a19.78,19.78,0,0,1,.64-4.6A48.33,48.33,0,0,0,2,46.57c.17-3.38.06-6.79.29-10.17.2-2.94.58-5.92,2.43-8.37a5.15,5.15,0,0,1,2.44-1.5,22.79,22.79,0,0,1,3.4-.69l-2.13-2.9c3.08-.63,3.07-1,3.34-4.47a48,48,0,0,0-.35-7.75C11,6.47,12.82,1.08,18.11.2c6.56-1.08,11,2.2,11.19,9,.06,2.42-.36,4.85-.38,7.27a25.23,25.23,0,0,0,.55,4.73c.26,1.34,1.38,1.61,3,1.39l-2.19,3.21a11.57,11.57,0,0,0,2.11.43c2.84.12,4.26,1.81,5,4.34a33.78,33.78,0,0,1,1.26,8.72c.13,4.9.39,9.8.73,14.69.12,1.73.7,3.43,1,5.15a29.9,29.9,0,0,1,.41,4.52c0,4.63-.13,9.26-.23,13.89a12.6,12.6,0,0,1-3,8,4.6,4.6,0,0,1-1,1,4.07,4.07,0,0,1-1.19.29c0-.41,0-.82,0-1.22,0-.19.18-.36.25-.54.64-1.82,1.28-3.63,1.75-5.51-1.52.54-1,2.54-2.68,3.24.5-2.52.58-4.9,1.95-6.88a4.19,4.19,0,0,0,.6-3.3c-.77-4.31-1.68-8.6-2.4-12.91-.5-3-.75-6.08-1.13-9.12-.45-3.55-.93-7.09-1.4-10.75a21.07,21.07,0,0,0-1.67,3.21,16,16,0,0,0-.71,4c-.13,2.26,0,4.53-.12,6.79-.15,2.72,1,5.05,2,7.46a30.72,30.72,0,0,1,2,8.83c.5,7-.71,13.81-2.27,20.57-1,4.35-2.12,8.68-2.08,13.18,0,2.74.3,5.47.38,8.2a53.56,53.56,0,0,1,0,6.94c-.47,4.59-1.2,9.15-1.79,13.73-.41,3.15-.95,6.31-1.1,9.47a55.38,55.38,0,0,0,.49,7.14c.06.71.24,1.41.34,2.12a1.55,1.55,0,0,1-1.16,1.95,18.85,18.85,0,0,1-3.41.51c-1.47.06-2.11-.81-1.82-2.24.42-2,.89-4,1.22-6.07a41.81,41.81,0,0,0,.08-11.45c-.28-2.57-.66-5.13-.85-7.71-.25-3.37-.51-6.76-.48-10.14,0-2.7.54-5.39.75-8.08a35.29,35.29,0,0,0-.06-3.56c-.08-3-.17-6-.26-9.05-.16-4.91-.3-9.81-.5-14.72-.06-1.58-.27-3.17-.44-4.75a5.35,5.35,0,0,0-.38-1A6.3,6.3,0,0,0,20,76.18c-.17,2.5-.39,5-.47,7.51-.13,4.59-.15,9.19-.28,13.78-.08,2.58-.42,5.16-.42,7.75,0,2.42.4,4.83.48,7.26.12,3.57.23,7.16.1,10.73-.1,2.85-.57,5.69-.87,8.54-.23,2.22-.57,4.43-.63,6.65a34,34,0,0,0,.32,6c.36,2.55,1,5.07,1.45,7.6a1.58,1.58,0,0,1-1.41,1.89,17.56,17.56,0,0,1-4.08-.6,1.82,1.82,0,0,1-.9-1.45c0-1.42.44-2.84.44-4.26a87.88,87.88,0,0,0-.24-10c-.62-5.89-1.71-11.73-2.3-17.62a63.48,63.48,0,0,1,.13-9.45c.19-3.51.53-7-.15-10.49-1.1-5.63-2.34-11.22-3.27-16.88-1.23-7.41-1.63-14.83,1.25-22,.52-1.29,1.07-2.58,1.48-3.91.88-2.93.43-6,.38-8.93,0-.91-.29-1.83-.23-2.73C10.92,43.34,9.19,42,8.53,40.07Z"/></g></g></svg>