<svg xmlns="http://www.w3.org/2000/svg" viewBox="0 0 33.33 132.53"><defs><style>.cls-1{fill:#f7c1b4;}</style></defs><g id="Layer_2" data-name="Layer 2"><g id="Layer_1-2" data-name="Layer 1"><path class="cls-1" d="M30.11,69.49l-1.35,2.62-.39-.2a25.6,25.6,0,0,1,1.65-6c.55-1.14.26-2.77.06-4.15-.78-5.67-1.69-11.33-2.52-17-.44-3-.81-6-1.22-9l-.3,0c-.29,2.26-.59,4.52-.86,6.79-.12,1-.12,2.07-.26,3.09-.48,3.55,1,6.74,1.79,10a36.56,36.56,0,0,1,.44,14.73c-.8,5.07-2.07,10.07-2.78,15.14a55.47,55.47,0,0,0-.18,9.3A68.63,68.63,0,0,1,23.88,107c-.6,3.93-1,7.89-1.61,11.82a35.24,35.24,0,0,0,.23,11c.29,1.75-.39,2.51-2.19,2.62l-.6,0c-2.48.07-2.77-.37-2.13-2.81a33,33,0,0,0,.93-12c-.4-3.71-.64-7.45-1-11.17a50.41,50.41,0,0,1,.43-12.27,29.82,29.82,0,0,0-.22-5.49c-.05-.79-.15-1.58-.17-2.38-.1-5.39-.16-10.78-.29-16.17,0-1.4-.22-2.79-.34-4.19l-.3,0a2,2,0,0,0-.26.63c-.11,1.27-.22,2.54-.25,3.82-.11,5.11-.16,10.22-.29,15.33,0,1.75-.37,3.49-.39,5.24s.21,3.57.26,5.36c.1,3.18.26,6.36.17,9.53-.09,2.94-.48,5.88-.74,8.81-.14,1.51-.39,3-.44,4.51a37.31,37.31,0,0,0,1.22,11.13c.44,1.64,0,2.14-1.64,2.13-.4,0-.8,0-1.2,0-1.84-.1-2.57-.92-2.2-2.71,1.09-5.3.4-10.53-.39-15.78-.54-3.62-1.08-7.25-1.29-10.9a84.84,84.84,0,0,1,.2-9.29A52.35,52.35,0,0,0,7.6,78.67,56.83,56.83,0,0,1,5.8,61a33.73,33.73,0,0,1,1.54-7.69,21,21,0,0,0,1-8.37c-.23-2.69-.6-5.38-.93-8.06a2,2,0,0,0-.5-1.12c-.56,4.76-1,9.53-1.7,14.28C4.73,53.49,4,56.88,3.44,60.29c-.2,1.14-.42,2.27-.56,3.42a5,5,0,0,0,.56,2.72,42.84,42.84,0,0,1,1.69,5.4l-.58.27L3.17,69.47l-.36.13c.35,1.26.7,2.53,1.08,3.78.13.42.44.78.54,1.2a2.83,2.83,0,0,1-.1,1c-.32-.09-.75-.08-1-.29A9.43,9.43,0,0,1,.24,69C.06,64.45,0,59.89,0,55.34a47.7,47.7,0,0,1,.67-5.8c.23-1.81.6-3.61.7-5.43.18-3.23.07-6.47.32-9.69a46.58,46.58,0,0,1,1.17-7A3.76,3.76,0,0,1,6.43,24.2a23.73,23.73,0,0,0,4-.9A4.64,4.64,0,0,0,12,22.37c-2.05.05-2.9-1.4-3.23-2.84a39.27,39.27,0,0,1-1-7.78,25.13,25.13,0,0,1,.94-6.23,6.6,6.6,0,0,1,6-5.37C17.77-.21,20.8-.11,23,2.57a10.18,10.18,0,0,1,2,5.29A25.86,25.86,0,0,1,24.67,19a4.65,4.65,0,0,1-1,2,12.87,12.87,0,0,1-2.38,1.53,10.47,10.47,0,0,0,1.63.76,24.94,24.94,0,0,0,4.07.92,3.65,3.65,0,0,1,3.41,3,48.59,48.59,0,0,1,1.21,7.27c.31,4.13.29,8.29.56,12.43.13,1.85.72,3.67.91,5.52a54.47,54.47,0,0,1,.25,5.86c0,3.63,0,7.27-.28,10.89a9,9,0,0,1-3,6,3,3,0,0,1-1,.4,3.75,3.75,0,0,1,0-1.2c.42-1.37.93-2.7,1.37-4.06a2.54,2.54,0,0,0,0-.78Zm-7.84-47.9-.16,0,.05.1Z"/></g></g></svg>