<svg xmlns="http://www.w3.org/2000/svg" viewBox="0 0 37.97 146.73"><defs><style>.cls-1{fill:#f7c1b4;}</style></defs><g id="Layer_2" data-name="Layer 2"><g id="Layer_1-2" data-name="Layer 1"><path class="cls-1" d="M30,22l-2.07,2.58a27.54,27.54,0,0,0,3.08.66,4,4,0,0,1,3.5,3.17,30.43,30.43,0,0,1,1.38,10.71,51.17,51.17,0,0,0,.61,10.12,97,97,0,0,1,1.39,21.31c-.17,2.67.18,5.5-1.19,8a29.88,29.88,0,0,1-2.73,3.89c-.2.27-.74.28-1.13.41a5.1,5.1,0,0,1,0-1.24c.51-1.67,1.08-3.31,1.62-5,.05-.16,0-.36-.25-.65l-1.57,3-.49-.19c.28-1.38.53-2.76.84-4.12A3.7,3.7,0,0,1,33.54,73c1.42-1.65,1-3.49.69-5.33-.65-3.48-1.43-6.94-2-10.44-.47-2.94-.69-5.93-1.05-8.89-.39-3.31-.82-6.61-1.45-10a4,4,0,0,0-.38.91c-.6,4.09-1.27,8.17-1.74,12.28-.3,2.56,1.23,4.74,1.87,7.11a53.88,53.88,0,0,1,1.66,7.8c.77,7.07-.64,14-2.21,20.8a55.8,55.8,0,0,0-1.82,14.3c.08,2.63.35,5.25.46,7.88.22,5.33-.77,10.56-1.53,15.8A68.18,68.18,0,0,0,25,139.65c.1,1.5.36,3,.61,4.49.2,1.26-.19,2-1.46,2.29a13.45,13.45,0,0,1-2.61.28c-1.49,0-2.11-.76-1.79-2.21s.72-3.09,1-4.66a42.28,42.28,0,0,0,0-13.19c-.36-2.56-.61-5.14-.79-7.72s-.29-5.35-.26-8a45.47,45.47,0,0,1,.5-5.94A23.69,23.69,0,0,0,20,97.36a16.26,16.26,0,0,1-.06-2.52c-.08-5.63-.14-11.27-.28-16.9,0-2-.29-4-.45-6l-.38,0a7.44,7.44,0,0,0-.31,1.3c-.18,2.9-.36,5.81-.48,8.71s-.33,6-.2,9a60.17,60.17,0,0,1-.45,10.48c-.22,1.61.41,3.31.47,5,.13,3.54.29,7.09.15,10.62s-.63,6.9-1,10.34c-.15,1.63-.4,3.25-.41,4.88a43.79,43.79,0,0,0,.32,5.84c.29,2.2.83,4.36,1.25,6.55.27,1.38-.35,2.11-1.78,2.13-3.81,0-4.52-.63-3.87-4.34.89-5.13.26-10.17-.46-15.23-.91-6.47-2.13-12.91-1.76-19.49.11-1.91.4-3.81.42-5.72a35.06,35.06,0,0,0-.33-6.32c-.94-5.52-2.2-11-3.11-16.53S6,68,7.23,62.47a31.21,31.21,0,0,1,1.94-5.91A14.12,14.12,0,0,0,10,48.48c-.42-2.95-.93-5.89-1.42-8.83a2.92,2.92,0,0,0-.69-1.43c-.41,3.33-.83,6.66-1.23,10A161.11,161.11,0,0,1,4,65.53a34.41,34.41,0,0,0-.61,3.77A5.93,5.93,0,0,0,4,72.5a54.13,54.13,0,0,1,1.94,6.06l-.57.29c-.28-.45-.58-.89-.83-1.36S4,76.37,3.73,75.8l-.46.12c.26,1.1.45,2.22.79,3.3.26.83.75,1.59,1,2.41A3.25,3.25,0,0,1,5,82.82a3.37,3.37,0,0,1-1-.4,10.75,10.75,0,0,1-3.7-7.79C.08,70.2-.09,65.76.05,61.34c.09-3,.73-6,1.1-9,.19-1.54.43-3.08.49-4.63.15-3.55.05-7.12.33-10.65a65.82,65.82,0,0,1,1.3-8.23A4.47,4.47,0,0,1,7.6,25c.78-.07,1.55-.3,2.44-.47L8.1,22.25c2.28-1,3.25-3.19,2.84-5.8a47.36,47.36,0,0,1-.81-7.1c0-2.85.72-5.6,3.1-7.49A7.7,7.7,0,0,1,16.49.27c3.4-.56,6.74-.5,9.18,2.56a10.29,10.29,0,0,1,2.09,6.73c0,2.25-.59,4.5-.71,6.75a14.87,14.87,0,0,0,.43,4.09A2.13,2.13,0,0,0,30,22Z"/></g></g></svg>