<svg xmlns="http://www.w3.org/2000/svg" viewBox="0 0 30.35 112.37"><defs><style>.cls-1{fill:#f7c1b4;}</style></defs><g id="Layer_2" data-name="Layer 2"><g id="Layer_1-2" data-name="Layer 1"><path class="cls-1" d="M14.84,57.2c0,2.74.11,5.49,0,8.23-.19,4-.67,7.94-.83,11.91-.08,1.85.38,3.72.45,5.58.08,2.58.12,5.16,0,7.73s-.43,5.16-.77,7.72A34.28,34.28,0,0,0,13.9,108a23.7,23.7,0,0,0,.62,2.3c.38,1.45-.08,2-1.57,2h-.48c-2.27-.14-2.82-.61-2.38-2.8,1-5.16-.12-10.15-.88-15.18a51.55,51.55,0,0,1-.64-13.92c.34-2.77-.31-5.47-.78-8.18C6.91,67.11,5.91,62,5.34,56.82a38.68,38.68,0,0,1,.94-12.25A26.9,26.9,0,0,0,6.76,36c-.18-1.58,0-3.19-.28-4.82-.24,1.47-.55,2.93-.72,4.41A135.12,135.12,0,0,1,3.18,52a19.38,19.38,0,0,0-.45,3.31,2.24,2.24,0,0,0,.5,1.16,10.61,10.61,0,0,1,1.33,4.8l-.34.13L3.09,59.22l-.43.16,1.69,5-.26.2A8.39,8.39,0,0,1,3,63.86,8.66,8.66,0,0,1,.24,57.45c-.12-2.59-.32-5.19-.2-7.78s.66-5.28.88-7.93c.31-3.69.46-7.39.76-11.08a43.24,43.24,0,0,1,.74-5.79C3,22,4,21.37,7,20.9a16.19,16.19,0,0,0,3.56-1,10,10,0,0,0,2-1.5A9.82,9.82,0,0,1,10,17.06a5.1,5.1,0,0,0-2.14-1.77C7.05,15,7,14.17,7.61,13.5L5.93,12l.45-.08c.26-.93.59-1.85.76-2.8.23-1.25.28-2.53.5-3.78A6.46,6.46,0,0,1,14,0,17.28,17.28,0,0,1,17.77.2C21,.92,22.48,3.26,23,6.34c.2,1.18.28,2.37.49,3.54a15.51,15.51,0,0,0,.64,2l.42.1-1.62,1.46c.53,1.35.32,1.73-1.28,2.19-.18,0-.45.14-.48.26-.44,1.56-1.73,1.95-3.17,2.26a4.32,4.32,0,0,0,3,2.24,35.64,35.64,0,0,0,3.86.78,3,3,0,0,1,2.66,2.26,34.21,34.21,0,0,1,1.2,6.06c.31,3.74.28,7.5.57,11.23.15,2.09.8,4.14.95,6.23.18,2.38.06,4.78.05,7.17,0,1.32,0,2.64-.11,4a8.7,8.7,0,0,1-3.27,6.3.94.94,0,0,1-.32.15,2.14,2.14,0,0,1-.5,0l1.68-5-.41-.18-1.09,2.17-.35-.07a3.34,3.34,0,0,1,0-1c.52-1.44,1.11-2.87,1.64-4.31a2.17,2.17,0,0,0,.16-1c-.46-2.58-1-5.15-1.43-7.74-.51-3.18-.93-6.38-1.38-9.56-.3-2.07-.57-4.14-.86-6.21h-.29c0,.33-.05.65-.05,1a76.12,76.12,0,0,0,1,16.08c.59,3,.25,6.27.18,9.41-.15,5.86-2,11.44-2.79,17.19-.39,2.85,0,5.8-.1,8.7-.06,2.37-.11,4.76-.39,7.11-.5,4.39-1.31,8.74-1.71,13.13a27.18,27.18,0,0,0,.55,5.93c.2,1.42-.05,1.84-1.48,2.15-3.3.71-3.61-.25-2.83-2.84a26.41,26.41,0,0,0,.64-10.19c-.46-4.52-.78-9-1-13.58a24.25,24.25,0,0,1,.47-4.86c.47-3-.21-6-.44-9-.21-2.82-.22-5.66-.28-8.5,0-2,0-4,0-6Z"/></g></g></svg>