<svg xmlns="http://www.w3.org/2000/svg" viewBox="0 0 145.38 403.55"><defs><style>.cls-1{fill:#319cc0;}</style></defs><g id="Layer_2" data-name="Layer 2"><g id="Layer_1-2" data-name="Layer 1"><path class="cls-1" d="M37.13,391.81l0-.3a15.86,15.86,0,0,0,2-3.34,45,45,0,0,0,2-8.27c.51-4.71.74-9.47.78-14.21,0-1.65-.9-3.3-1.39-4.95l-.15-1.53c.2-1.2.73-2.45.53-3.57-1.1-6.09-2.09-12.22-3.65-18.2-3-11.34-4-22.93-1.94-34.3,2-11,.17-21.13-2.76-31.49-1.64-5.8-2.37-11.85-3.6-17.77-.55-2.66-1.31-5.27-2-7.9l-.12-1.52c0-3.41-.21-6.82-.1-10.22.45-14.3.59-28.62,1.66-42.87.6-8,2.8-15.81,4.3-23.71.46-2.43,1.44-4.85,1.43-7.27-.06-9.45.12-19-.89-28.34-.58-5.37-3.28-10.52-5-15.77l0-.07L27.54,115a8,8,0,0,0-1.47,2.22c-2.34,10.12-4.78,20.22-6.78,30.41-.67,3.41-.16,7-.18,10.57,0,.5-.05,1-.07,1.5-.42.53-1.1,1-1.21,1.61-1.74,8.85-3.48,17.71-5.06,26.6-.59,3.31-.78,6.69-1.15,10,.06,1.26.11,2.51.17,3.77l-.33.45.58,0-.08,0,2.14,2.42,0,0,.93,1.43,0,0q1.84,7.61,3.68,15.21l-.59.14-3.62-5.16h0l-2.08-2.75c-2.32,4.07-1.4,9.3,1.84,12.84l-.16.18.14-.2.78,1.5-.2.07.18-.11,1.86,5.87H13l0-.06-1.34-1,0,0L10,231.17l.05,0-.79-.78,0,0-.76-.83.06,0-1.69-2.13v0l-.65-.84.14-.17-.12.18Q3.5,217.72.65,208.78c-.05-.15-.42-.21-.65-.31v-2.21c.42-.54,1.17-1.07,1.19-1.62.1-4.55.18-9.11.06-13.66-.17-6-.84-11.92-.71-17.87.14-6.36.88-12.72,1.51-19.06.29-2.92,1.39-5.81,1.37-8.71-.08-11.09.14-22.17,3.18-32.89a72.5,72.5,0,0,0,3-20.15c0-3.79.94-7.6,1.55-11.39.26-1.55.76-3.06,1.15-4.59h0l2.36-3-.05.06.79-.8h0L17.53,71c7.38-1.8,14.82-3.41,22.12-5.51,3-.88,5.76-2.8,8.62-4.25l-.05,0c.35-.41.69-.83,1-1.25h0l1.21-1.73v.05c3.26-3.4,3.59-7.65.8-10.18h0c-.76-2-1.53-4-2.29-6l0,0c-1.16-4.35-2.41-8.67-3.45-13s-2-8.79-.57-13.37c.52-1.69.2-3.64.27-5.47l.18,0h-.19L46,9.49l.08.25L46,9.5c.29-.47.57-.95.85-1.42l0,0c.26-.51.51-1,.76-1.53l.06.19-.08-.17,1.63-2.28,0,0,1.45-.88,0,.27-.07-.26,2.2-1.53.18.1-.15-.13c7.78-2.64,15.6-2.3,23.46-.38h0l3.1,2.15,0,0,.91.65L80,4.39l.15-.11.79.78,0,0,3,5.24c.86,7.17,1.54,14.31-.84,21.4-.88,2.61-1,5.48-1.47,8.22h0l-1.42,2.34,0,0L77.8,48.8l0,0c-2.66,3-1.48,8.78,2.27,11.19l2.14,1.84c.89.72,1.67,1.82,2.68,2.1,9.11,2.52,18.26,4.9,27.4,7.31h0L114,72.51l0,0,.8.77,0,0,.79.78,0,0,1.35,1.71v0a73,73,0,0,1,3.1,23.5,17.3,17.3,0,0,0,1,6.22c4.62,13.14,5,26.77,5,40.47a16,16,0,0,0,.65,5.5,55.15,55.15,0,0,1,3.1,20.48,38.23,38.23,0,0,0,.54,5.09c0,.76-.08,1.51-.13,2.27-2.32,5.34-2.45,10.86-1.36,16.48q0,3.4.07,6.81l-2.73,18.87,0,0c-.25.52-.49,1-.73,1.55h0l-2.52,4.31-.61.81-.76.87.05,0-.73.84,0,0-.73.81-.24-.22.24.21-.75.77-.26-.13.26.11-.77.76-.23-.09.24.07-.83.73h0l-4.63,1.07c.17-1.72.3-3.1.43-4.47v0c3.68-4.3,6-9,4-14.8l0,0-1.29.26,0-.06c-.26.26-.51.53-.76.79l0,0-3.43,3.81-.93-.17,4.08-14.39.63-.74,1.47-1.66-.06.06c.56-1.2,1.71-2.48,1.57-3.6a83.49,83.49,0,0,0-2-9.82c-2.87-11.57-6-23.1-5.35-35.21a11.67,11.67,0,0,0-.25-3.34q-3.91-16.27-8-32.52a9.88,9.88,0,0,0-1.33-2.29c-.64.62-1.63,1.14-1.84,1.88-1.76,6.07-4.18,12.08-4.88,18.28C93.27,152.85,96.29,169.56,101,186c0,2.87-.16,5.75.09,8.6.34,3.88,1,7.74,1.53,11.6.16.52.32,1,.47,1.57a25.91,25.91,0,0,0-.53,3.59q-.08,11.19,0,22.4a41.51,41.51,0,0,0,.55,4.7l-.51,1.54q-.66,6.44-1.33,12.86l.06.06a6.05,6.05,0,0,0-1,1.73c-1.17,5.57-1.87,11.27-3.46,16.72-3.15,10.84-5.09,21.58-2.77,32.95a52.15,52.15,0,0,1,.69,17.08c-1.56,11.52-4.26,22.89-6.13,34.38-.7,4.31-.38,8.78-.52,13.18L88,371.22c-.41,1.54-1.45,3.24-1.1,4.59a144.66,144.66,0,0,0,5.34,17.37c1.21,3,2.37,5.55-.06,8.32l0,0c-3.79.55-7.6.94-11.35,1.67-6.49,1.26-7.69-.17-6.38-6.82a163.15,163.15,0,0,0,2.49-18c1.16-14-2.73-27.36-4.88-40.94-2-13-2.45-25.92.4-38.84-.23-6.11-.39-12.21-.74-18.3A19.73,19.73,0,0,0,70.53,276c0-1.5,0-3,0-4.49.41-.92,1.2-1.85,1.17-2.76-.14-5-.32-9.94-.83-14.87-.25-2.42-1.22-4.76-1.87-7.14l-.09-1.52a5.25,5.25,0,0,0,.57-1.7c-.21-9.79-.45-19.58-.78-29.36,0-.67-.82-1.3-1.25-2l-.13-.15-5.34.09,0,.07c-.47,1.48-1.34,3-1.33,4.45,0,7,.28,14,.46,21l-.12,1.54-1.35,15-.15,1.54c-.64,2.14-1.75,4.26-1.83,6.43-.24,6.85.93,13.93-.4,20.54-1.43,7.12-.31,13.79.44,20.63.22,1.93,1.22,3.77,1.85,5.66l.12,1.52q0,7.85,0,15.68l-.12,1.54c-.46,3.49-.91,7-1.37,10.46-.1.52-.19,1-.29,1.55-1.09,4.42-2.42,8.8-3.2,13.27-.65,3.75-.67,7.62-1,11.44L53.47,366c-.4.66-1.13,1.31-1.15,2-.12,3.43-.12,6.87,0,10.3,0,.67.74,1.32,1.14,2l.12,1.54c0,2.54-.41,5.12-.07,7.6.63,4.51,1.67,8.95,2.54,13.42l0,0c-2.79,0-5.61.25-8.38,0-3.54-.28-7.06-.92-10.58-1.4l0,0-1.49-.89,0,0c-.28-1.33-.57-2.66-.86-4h-.07l.76-1.54h0l.78-1.51,0,0Z"/></g></g></svg>