<svg xmlns="http://www.w3.org/2000/svg" viewBox="0 0 160 425.69"><defs><style>.cls-1{fill:#319cc0;}</style></defs><g id="Layer_2" data-name="Layer 2"><g id="Layer_1-2" data-name="Layer 1"><path class="cls-1" d="M130.3,224.7c-4.54,1.67-3.07,8.09-8.69,9.47,1.68-7.73,1.71-15.3,7.16-21,2.37-2.49,2.06-5.18,1.43-8-2.22-9.86-4.52-19.7-6.7-29.57a29.74,29.74,0,0,1-1-7c.39-15.29-6.32-29.1-9-43.74a7.76,7.76,0,0,0-1.18-3.49c-.52,1.61-.94,3.26-1.58,4.81-3.54,8.62-4.25,17.67-4.17,26.84,0,4.63.06,9.25.19,13.87a15.11,15.11,0,0,0,.64,5.19c4.44,10.94,5.24,22.49,6.34,34.08,2.24,23.52,1.94,46.9-2.73,70.11a172.25,172.25,0,0,1-4.55,17,45.78,45.78,0,0,0-1.29,22.2c2.47,13.62,1,27-1.81,40.5-2.52,12.05-3.82,24.37-5.55,36.58a10.81,10.81,0,0,0,.38,4.8c2.16,6.35,4.37,12.69,6.88,18.91,1.28,3.16.57,5.49-2.44,6.24a154.07,154.07,0,0,1-17.59,3.21c-2.8.36-4.28-1.67-4.16-4.56a11.28,11.28,0,0,1,.32-2.6c4.9-16.89,3.89-33.71.34-50.75a250.67,250.67,0,0,1-4.14-31.88A64.23,64.23,0,0,1,78.85,318c1.89-8.92.92-17.62-.26-26.41a7.5,7.5,0,0,1-.19-1.48c1.3-20.42-3.77-40.5-3.24-60.88.06-2.24,0-4.48,0-6.86H68.52c0,6.56.35,13.27-.08,19.92-.72,10.83-2.15,21.62-2.9,32.44-.41,6.08.63,12.3-.2,18.29a88.11,88.11,0,0,0,.59,27.88c2.55,14.37.25,28.61-2.42,42.77-1.43,7.61-3.51,15.24-3.66,22.89-.18,9.4,1.31,18.84,2.18,28.25.18,2,1,3.89,1.2,5.86.41,3.23-1.2,5.38-4.42,5a120.28,120.28,0,0,1-16.87-3.06c-3.76-1-4.46-3.29-2.63-6.64,7.15-13.09,8.37-26.92,5.42-41.31-1.37-6.73-2.47-13.52-4.16-20.17a97.81,97.81,0,0,1-1.35-41.25,40.45,40.45,0,0,0-1.48-19.58,181.82,181.82,0,0,1-8.69-57.93c.25-19.42.54-39,5.73-58,5.29-19.37,3.88-38.42-3.1-56.89-3.18,11.8-6.63,23.57-9.42,35.5-1.06,4.54-.05,9.54-.91,14.16-2.14,11.52-4.76,23-7.31,34.4-.79,3.53-.42,6.34,2.18,9.24,4.85,5.4,4.7,12.61,6.37,19.45-3.65.66-3.63-2.19-4.64-3.9s-2.15-3.48-3.23-5.22l-1.15.39c.42,2.59.54,5.28,1.35,7.75.89,2.69,2.59,5.11,3.6,7.78a34.19,34.19,0,0,1,1.12,5.68c-1.92-.55-4.26-.59-5.69-1.74C4.62,236.73.3,226.86.71,214.76,1,207.82.55,200.85.43,193.9Q.22,181.38,0,168.85a4.09,4.09,0,0,1,.14-1.49C5,154.54,2.53,140.91,4.52,127.77a33.68,33.68,0,0,1,.88-5.54C8.81,112.08,9.71,101.59,10.57,91c1.16-14.27,6.69-19.37,20.71-21.8,5.39-.94,10.68-2.45,16-3.75,10.74-2.62,13.54-12.36,8-21.7a41.3,41.3,0,0,1-4.77-30.19,16,16,0,0,1,11.81-12C70.86-.72,79.43-1.07,87.13,4.47c3.89,2.8,6,6.6,7,11.35,1.47,7,0,13.67-1.7,20.23-1.17,4.5-3.84,8.59-5.51,13-2.2,5.82.57,12.81,6.39,14.93s12,3.38,18,5c1,.25,2,.31,3,.47,12.37,2,18.28,7.75,19.34,20.2.93,11,1.52,21.89,5.23,32.38a18.63,18.63,0,0,1,.84,5.16c.5,8.85.91,17.71,1.35,26.56.06,1.24-.22,2.64.25,3.71,5.23,11.9,3.22,24.29,2.67,36.61-.32,7.06-.54,14.15-.33,21.21.34,11.4-3.92,20.67-12.12,28.3a13.91,13.91,0,0,1-4.13,2.5c-.79.33-2.34.33-2.68-.15a3.61,3.61,0,0,1-.31-3,37.51,37.51,0,0,1,2.55-4.57C129.16,234.13,130.81,229.76,130.3,224.7Z"/></g></g></svg>