<svg xmlns="http://www.w3.org/2000/svg" viewBox="0 0 114.88 309.2"><defs><style>.cls-1{fill:#329cc0;}</style></defs><g id="Layer_2" data-name="Layer 2"><g id="Layer_1-2" data-name="Layer 1"><path class="cls-1" d="M77.08,102.9c-1.16,12.3-3.2,24.3-.46,37,4.18,19.28,3.5,39,.07,58.49-.93,5.28-2,10.55-3.19,15.77a47.45,47.45,0,0,0-.62,18.92c1.91,11.31-.49,22.33-2.78,33.37-1.32,6.33-2.56,12.88-2.33,19.27.18,5.17,2.28,10.38,4.12,15.35,1.59,4.31,1.48,5.44-3,6.68a51.45,51.45,0,0,1-7.73,1.36c-4.79.55-5.81-.8-5-5.46.94-5.27,2.35-10.65,2.07-15.9a226.81,226.81,0,0,0-3.32-26.31,92.22,92.22,0,0,1-.16-31.66c.69-3.95-.07-8.17-.29-12.25q-1.27-23.9-2.64-47.79c-.06-1.09-.12-2.19-.19-3.43h-3.7c-.26,5.56-.43,11.14-.81,16.7s-1.43,11.19-1.4,16.79c.08,12.77-2.49,25.47,0,38.34,1.88,9.55-.16,19.2-2.19,28.61-2.72,12.63-3.61,25.15-.12,37.79q1.45,5.26-4,4.62A81.73,81.73,0,0,1,28.81,307c-2-.5-3-2.2-1.93-4.08,7.46-13.32,5.07-27.1,1.73-40.77C25.83,250.83,25.84,239.59,27,228c.64-6.12-1-12.61-2.28-18.78-4.76-22.35-6.65-45-2.19-67.34,2.67-13.44,1.3-26.26-.15-39.37a18.54,18.54,0,0,0-1.81-6.11c-.37,1.74-.8,3.47-1.12,5.22-3.19,17.52-6.44,35-9.43,52.57a9.23,9.23,0,0,0,1.53,6c2.81,4.25,3.24,8.95,4.08,13.62l-1.06.53c-1.31-2.05-2.63-4.09-4.28-6.66-1.54,6,3.13,10,4.11,14.76l-.89.9c-1.42-.69-3.09-1.12-4.24-2.13A25.09,25.09,0,0,1,.57,161.72c0-6.21.1-12.44-.32-18.63-.52-7.78-.38-15.28,1.93-22.94C3.91,114.41,3.39,108,4.29,102,5.93,91,7.78,80,9.74,69.11c1.08-6,5-9.17,10.88-10.41A92.14,92.14,0,0,0,34,55.05c2-.76,3.76-2.7,5.13-4.49S40,47,38.22,45A35.52,35.52,0,0,1,29,23.55a34.87,34.87,0,0,1,0-7.71C30.42,6.49,35.08,1.64,44.32.44,50.74-.4,57.08-.32,63.15,3.26S71.41,14.51,71,20.57c-.7,9.69-3.84,18.39-10.59,25.65-2,2.12.1,6.94,3.87,8.38a88.55,88.55,0,0,0,13.27,3.9c8.19,1.71,11.31,4.29,12.6,12.57C92.61,87,94.37,103,97.24,118.82c1.28,7,2.63,13.9,2.29,21.07-.37,7.83-.34,15.68-.69,23.51a24,24,0,0,1-9.09,18.18c-1,.81-2.65.83-4,1.21a19.64,19.64,0,0,1,.47-3.78c1-3,2.1-6,3.17-9l-1.19-.55-3.57,5.09-1.37-.5c1.45-4.41,2.3-9.17,4.56-13.12a10.85,10.85,0,0,0,1.5-8.36c-1.83-8.79-3.44-17.62-5.19-26.42-1.27-6.4-2.67-12.78-3.91-19.19a33.61,33.61,0,0,1-.26-4.83L78.52,92l-.67.1Q77.47,97.5,77.08,102.9Z"/></g></g></svg>