<svg xmlns="http://www.w3.org/2000/svg" viewBox="0 0 102.2 255.16"><defs><style>.cls-1{fill:#329cc0;}</style></defs><g id="Layer_2" data-name="Layer 2"><g id="Layer_1-2" data-name="Layer 1"><path class="cls-1" d="M19.84,80.36l-.12-1c-.13-.56-.25-1.12-.38-1.68a4.74,4.74,0,0,0-1.88,3c-1.93,10.92-3.68,21.87-5.75,32.76-1.18,6.18-3,12.24-4.19,18.42-.23,1.17,1.09,2.64,1.7,4l0,0,1,1.25.07,0c.38,1.09.75,2.17,1.13,3.25.47,1.55.93,3.1,1.73,5.77l-4-2.68c-1.87,4.43,3.17,6.92,3.21,11.45-1.74-.68-3.13-.88-4.05-1.64C2.7,148.72.05,143.09.61,135.61c.45-5.8-.71-11.7-.6-17.55.07-4.29,1-8.57,1.61-12.85.74-5.68,1.34-11.39,2.26-17Q5.77,76.53,8.07,65c1.21-6.12,3.9-8.32,10.05-9.41a98.62,98.62,0,0,0,12-2.91c5.5-1.72,6.72-5.4,3.13-9.7-5.65-6.79-9.41-14.23-9.81-23.22C23,10,27.1,2.47,37.55.66,44-.46,50.34-.45,56.4,3s7.9,9.15,7.84,15.38a32.68,32.68,0,0,1-2.51,12.69c-1.86,4.22-5.11,7.84-7.88,11.63-2.88,4-1.9,8,2.83,9.62A78,78,0,0,0,68.6,55.5c6.7,1.19,9.28,3.19,10.41,9.85,2.11,12.54,2.77,25.47,6.26,37.59s.17,23.83,1.18,35.68c.53,6.2-3,11.23-8,14.87-.84.61-2.23.45-3.36.65a15,15,0,0,1,.54-3.25,27,27,0,0,0,2.28-6.69l-2.76,1.37c-2.07-2.93-.55-6,1.59-8.5s2.07-4.4,1.51-7.16c-3.14-15.36-6.1-30.76-9.14-46.14a8.92,8.92,0,0,0-1.33-3.44c-1,9.28-2.15,18.56-3,27.86a31.16,31.16,0,0,0,.54,8.16,150.74,150.74,0,0,1-2.41,62.78c-1.19,4.82-.58,10.09-.8,15.15-.27,6.45-.25,12.93-.93,19.33-.5,4.81-1.9,9.54-2.91,14.29a29.24,29.24,0,0,0,3.18,21.29c1.38,2.43.61,3.9-1.82,4.45a81.78,81.78,0,0,1-9.21,1.49c-2.76.3-3.52-1.33-3-3.78s1-5.13,1.56-7.69c2.17-10.57-2.28-20.46-3.05-30.72-.5-6.53.08-13.15.16-19.73,0-3.33.06-6.67.08-10,0-.12,0-.25-.06-.37L44.4,160.58V143.65l-.47,0-.77,2.06c-.32.61-.9,1.2-.94,1.83-.55,10.54-1,21.08-1.55,31.62-.2,4.34-1.3,8.86-.42,13a62.44,62.44,0,0,1-.72,28C37,230.55,35.86,240.67,38.92,251c.68,2.31-.13,3.55-3,2.94-3.22-.69-6.53-1-9.81-1.44l-.17-.16c.05-.9.11-1.8.16-2.71h0l.85-1.46,0,0c1.31-3.25,3.72-6.5,3.71-9.75A118.12,118.12,0,0,0,28.46,219c-1.21-7-3.43-13.89-2.17-21.26a44.23,44.23,0,0,0,.63-13c-1.35-10.05-4.21-19.94-4.91-30a203.63,203.63,0,0,1,.69-33c.73-7.69,1.54-15.22,0-22.84-.29-1.46-.82-2.87-1.24-4.3-.06-.51-.11-1-.17-1.52A17.17,17.17,0,0,0,19.84,80.36Z"/></g></g></svg>