<svg xmlns="http://www.w3.org/2000/svg" viewBox="0 0 125.91 365.86"><defs><style>.cls-1{fill:#329cc0;}</style></defs><g id="Layer_2" data-name="Layer 2"><g id="Layer_1-2" data-name="Layer 1"><path class="cls-1" d="M48.51,312.54c-.07.5-.13,1-.19,1.51-2.45,6.27-4.1,12.65-2.91,19.46,0,.51-.07,1-.1,1.55-1.84,1.76-1.88,3.51,0,5.26,0,.51.07,1,.1,1.54a14.12,14.12,0,0,0-.5,3.59c.78,6.37,1.69,12.73,2.56,19.09l-.11.06-.84.68,0-.06L32,363v0l-1.53-5.67-.05,0,.75-1.54h0l.78-1.5.18.11-.2-.07c1.59-5.42,3.2-10.83,4.68-16.27.11-.4-.72-1.06-1.12-1.59,0-.77-.07-1.54-.1-2.3a7.7,7.7,0,0,0,.52-2.47c-1.27-9.05-2.26-18.17-4.06-27.12-2-10-2.76-19.91-1.18-29.93a59.05,59.05,0,0,0-.93-22.48c-1.52-6.74-2.88-13.52-4.38-20.26-.48-2.18-1.21-4.3-1.83-6.44-.05-.52-.1-1-.16-1.54.19-2.43.52-4.86.54-7.29q.09-13.66,0-27.34c0-3.18-.33-6.36-.51-9.53,0-.52.08-1,.11-1.55a19.93,19.93,0,0,0,1.15-3.53c.69-4.77.59-9.75,2-14.28a78.66,78.66,0,0,0,3.22-29c-.23-3.42-1.2-6.79-1.83-10.18-.07-.51-.13-1-.19-1.53-1-5.49-2-11-3.05-16.46-.06-.31-1.18-.41-1.88-.63-1.69,9.66-3.45,19-4.93,28.39C17.3,135,17.27,139,17,143l-.12,3a11.9,11.9,0,0,0-1.18,2.77c-.48,3.05-.58,6.18-1.2,9.2-1.48,7.15-3.34,14.22-4.65,21.4-.31,1.71.92,3.71,1.44,5.58l0-.06,1,1.34,0,0,.69.84-.06,0,.69.9,0,0,2.25,10.87-5.46-3.7q.46,3.59.94,7.17l0,0,.81,2.28a65.27,65.27,0,0,1,3.27,5.81c.39.87,0,2.07,0,3.12a11.38,11.38,0,0,1-3.13-.42A8.43,8.43,0,0,1,9.5,211,32.46,32.46,0,0,1,.63,187.8c.07-7,.08-13.94-.28-20.88-.48-9.62-.93-19.06,2-28.57,1.69-5.47,1.06-11.64,1.82-17.45,1.53-11.63,3.29-23.23,4.94-34.85.23-1.6.37-3.22.5-4.84.74-9.36,6.11-15.42,15.16-17.53a68.86,68.86,0,0,0,12.82-4c2.28-1,4.1-3.38,5.71-5.45,1.31-1.68.68-3.37-.52-5.38-4.4-7.38-7.86-15.14-8.57-24-.47-5.81-.32-11.16,2.83-16.42a14.89,14.89,0,0,1,8.88-6.91c8-2.21,16-2.61,23.29,2.67A15.6,15.6,0,0,1,75.73,15c2,12.93-2.19,24.23-9,34.86C65.2,52.17,67.3,57.44,71,59a91.76,91.76,0,0,0,13.82,4.59c10,2.42,14.43,7.18,15.77,17.33,2,15.22,4.59,30.39,6,45.66,1.18,12.6,5.49,24.91,3.57,37.82a88.92,88.92,0,0,0-.8,10.83c-.11,4-.07,7.95.15,11.91A31.68,31.68,0,0,1,101,210.77a8.35,8.35,0,0,1-2.61,2.1,14.88,14.88,0,0,1-3.39.68,11,11,0,0,1,.14-3.41c.87-2.33,2.28-4.46,3.07-6.81a60.16,60.16,0,0,0,1.55-7.22l-1-.46q-2.31,3.9-4.64,7.8L93,202.89c.77-5.67,1-11.59,4.66-16.4a8.56,8.56,0,0,0,1.67-7.64c-1.78-8.42-3.53-16.86-5.18-25.31-.45-2.32-.4-4.73-.75-7.07Q90.2,125.23,87,104l-1.29-.11c-1.31,8.36-3.09,16.68-3.79,25.09-.95,11.47,1.41,22.67,3.17,34,4.59,29.65,5.18,59.47-3.14,88.8a47.9,47.9,0,0,0-1.22,21.49c2.33,13.59-.27,26.83-2.93,40.1-1.33,6.59-1.91,13.34-2.73,20-1,8.11,1.81,15.52,4.62,22.84,1.89,4.92,1.52,6.48-3.56,7.9a61.75,61.75,0,0,1-8.46,1.55c-5,.67-6.33-.88-5.49-5.94.75-4.55,1.51-9.1,2.21-13.66,1.42-9.3-.46-18.38-1.68-27.54-1.47-11.12-2.48-22.3-3.49-33.47a29.89,29.89,0,0,1,.64-7.81c1.46-8.19,1-16.28.38-24.56-1.42-18.65-1.81-37.37-2.67-56.06a22.79,22.79,0,0,0-.69-3.5l-3.7.09-.1,0c-.47.74-1.32,1.47-1.34,2.22-.33,10-.54,20.07-.77,30.1l0,0q-.48,6-1,11.95l-.15,2.28-.66.23.66.52c0,.77.08,1.54.13,2.3q-.66,7.48-1.31,14.95a9.64,9.64,0,0,0-.45,2.54c.43,4.16,1,8.3,1.48,12.45.1.52.19,1,.29,1.55a29.42,29.42,0,0,0-.53,3.93q-.09,9.93,0,19.86a38.86,38.86,0,0,0,.58,4.65c-.06.5-.11,1-.17,1.51C49.4,307.05,49,309.79,48.51,312.54Z"/></g></g></svg>